<mxfile host="app.diagrams.net" modified="2022-04-21T18:14:49.551Z" agent="5.0 (X11)" etag="nLm412KdtZhW2lyHic3q" version="17.4.5" type="github" pages="7">
  <diagram id="px6kIl1503STDfvzBjut" name="Page-1">
    <mxGraphModel dx="832" dy="452" grid="1" gridSize="10" guides="1" tooltips="1" connect="1" arrows="1" fold="1" page="1" pageScale="1" pageWidth="650" pageHeight="400" background="#283618" math="0" shadow="0">
      <root>
        <mxCell id="0" />
        <mxCell id="1" parent="0" />
        <mxCell id="5yER8BtVRCcI6fA0JRAN-6" style="rounded=0;orthogonalLoop=1;jettySize=auto;html=1;exitX=0.5;exitY=1;exitDx=0;exitDy=0;entryX=0.5;entryY=0;entryDx=0;entryDy=0;labelBackgroundColor=#283618;strokeColor=#DDA15E;fontColor=#FEFAE0;" edge="1" parent="1" source="5yER8BtVRCcI6fA0JRAN-1" target="5yER8BtVRCcI6fA0JRAN-5">
          <mxGeometry relative="1" as="geometry" />
        </mxCell>
        <mxCell id="5yER8BtVRCcI6fA0JRAN-7" style="edgeStyle=none;rounded=0;orthogonalLoop=1;jettySize=auto;html=1;exitX=1;exitY=0.5;exitDx=0;exitDy=0;entryX=0;entryY=0.5;entryDx=0;entryDy=0;labelBackgroundColor=#283618;strokeColor=#DDA15E;fontColor=#FEFAE0;" edge="1" parent="1" source="5yER8BtVRCcI6fA0JRAN-1" target="5yER8BtVRCcI6fA0JRAN-2">
          <mxGeometry relative="1" as="geometry" />
        </mxCell>
        <mxCell id="5yER8BtVRCcI6fA0JRAN-28" style="rounded=1;sketch=0;orthogonalLoop=1;jettySize=auto;html=1;exitX=1.075;exitY=0.675;exitDx=0;exitDy=0;entryX=0.075;entryY=0.325;entryDx=0;entryDy=0;fontColor=#FEFAE0;strokeColor=#DDA15E;fillColor=#BC6C25;entryPerimeter=0;exitPerimeter=0;" edge="1" parent="1" source="5yER8BtVRCcI6fA0JRAN-1" target="5yER8BtVRCcI6fA0JRAN-3">
          <mxGeometry relative="1" as="geometry" />
        </mxCell>
        <mxCell id="5yER8BtVRCcI6fA0JRAN-1" value="0" style="ellipse;whiteSpace=wrap;html=1;aspect=fixed;fillColor=#BC6C25;strokeColor=#DDA15E;fontColor=#FEFAE0;" vertex="1" parent="1">
          <mxGeometry x="200" y="80" width="40" height="40" as="geometry" />
        </mxCell>
        <mxCell id="5yER8BtVRCcI6fA0JRAN-8" style="edgeStyle=none;rounded=0;orthogonalLoop=1;jettySize=auto;html=1;exitX=1;exitY=0.5;exitDx=0;exitDy=0;entryX=0;entryY=0;entryDx=0;entryDy=0;labelBackgroundColor=#283618;strokeColor=#DDA15E;fontColor=#FEFAE0;" edge="1" parent="1" source="5yER8BtVRCcI6fA0JRAN-2" target="5yER8BtVRCcI6fA0JRAN-3">
          <mxGeometry relative="1" as="geometry" />
        </mxCell>
        <mxCell id="5yER8BtVRCcI6fA0JRAN-2" value="1" style="ellipse;whiteSpace=wrap;html=1;aspect=fixed;fillColor=#BC6C25;strokeColor=#DDA15E;fontColor=#FEFAE0;" vertex="1" parent="1">
          <mxGeometry x="360" y="80" width="40" height="40" as="geometry" />
        </mxCell>
        <mxCell id="5yER8BtVRCcI6fA0JRAN-9" style="edgeStyle=none;rounded=0;orthogonalLoop=1;jettySize=auto;html=1;exitX=0.5;exitY=1;exitDx=0;exitDy=0;entryX=0.5;entryY=0;entryDx=0;entryDy=0;labelBackgroundColor=#283618;strokeColor=#DDA15E;fontColor=#FEFAE0;" edge="1" parent="1" source="5yER8BtVRCcI6fA0JRAN-3" target="5yER8BtVRCcI6fA0JRAN-4">
          <mxGeometry relative="1" as="geometry" />
        </mxCell>
        <mxCell id="5yER8BtVRCcI6fA0JRAN-13" style="edgeStyle=none;rounded=0;orthogonalLoop=1;jettySize=auto;html=1;exitX=0;exitY=0.5;exitDx=0;exitDy=0;entryX=1;entryY=0.5;entryDx=0;entryDy=0;labelBackgroundColor=#283618;strokeColor=#DDA15E;fontColor=#FEFAE0;" edge="1" parent="1" source="5yER8BtVRCcI6fA0JRAN-3" target="5yER8BtVRCcI6fA0JRAN-11">
          <mxGeometry relative="1" as="geometry" />
        </mxCell>
        <mxCell id="5yER8BtVRCcI6fA0JRAN-3" value="2" style="ellipse;whiteSpace=wrap;html=1;aspect=fixed;fillColor=#BC6C25;strokeColor=#DDA15E;fontColor=#FEFAE0;" vertex="1" parent="1">
          <mxGeometry x="480" y="160" width="40" height="40" as="geometry" />
        </mxCell>
        <mxCell id="5yER8BtVRCcI6fA0JRAN-4" value="3" style="ellipse;whiteSpace=wrap;html=1;aspect=fixed;fillColor=#BC6C25;strokeColor=#DDA15E;fontColor=#FEFAE0;" vertex="1" parent="1">
          <mxGeometry x="480" y="240" width="40" height="40" as="geometry" />
        </mxCell>
        <mxCell id="5yER8BtVRCcI6fA0JRAN-10" style="edgeStyle=none;rounded=0;orthogonalLoop=1;jettySize=auto;html=1;exitX=1;exitY=0.5;exitDx=0;exitDy=0;entryX=0;entryY=0.5;entryDx=0;entryDy=0;labelBackgroundColor=#283618;strokeColor=#DDA15E;fontColor=#FEFAE0;" edge="1" parent="1" source="5yER8BtVRCcI6fA0JRAN-5" target="5yER8BtVRCcI6fA0JRAN-4">
          <mxGeometry relative="1" as="geometry" />
        </mxCell>
        <mxCell id="5yER8BtVRCcI6fA0JRAN-5" value="4" style="ellipse;whiteSpace=wrap;html=1;aspect=fixed;fillColor=#BC6C25;strokeColor=#DDA15E;fontColor=#FEFAE0;" vertex="1" parent="1">
          <mxGeometry x="200" y="240" width="40" height="40" as="geometry" />
        </mxCell>
        <mxCell id="5yER8BtVRCcI6fA0JRAN-14" style="edgeStyle=none;rounded=0;orthogonalLoop=1;jettySize=auto;html=1;exitX=0;exitY=0.5;exitDx=0;exitDy=0;entryX=1;entryY=1;entryDx=0;entryDy=0;labelBackgroundColor=#283618;strokeColor=#DDA15E;fontColor=#FEFAE0;" edge="1" parent="1" source="5yER8BtVRCcI6fA0JRAN-11" target="5yER8BtVRCcI6fA0JRAN-1">
          <mxGeometry relative="1" as="geometry" />
        </mxCell>
        <mxCell id="5yER8BtVRCcI6fA0JRAN-11" value="5" style="ellipse;whiteSpace=wrap;html=1;aspect=fixed;fillColor=#BC6C25;strokeColor=#DDA15E;fontColor=#FEFAE0;" vertex="1" parent="1">
          <mxGeometry x="310" y="160" width="40" height="40" as="geometry" />
        </mxCell>
        <mxCell id="5yER8BtVRCcI6fA0JRAN-16" value="4" style="text;html=1;align=center;verticalAlign=middle;resizable=0;points=[];autosize=1;strokeColor=none;fillColor=none;fontColor=#FEFAE0;" vertex="1" parent="1">
          <mxGeometry x="290" y="100" width="20" height="20" as="geometry" />
        </mxCell>
        <mxCell id="5yER8BtVRCcI6fA0JRAN-21" value="3" style="text;html=1;align=center;verticalAlign=middle;resizable=0;points=[];autosize=1;strokeColor=none;fillColor=none;fontColor=#FEFAE0;rotation=15;" vertex="1" parent="1">
          <mxGeometry x="430" y="130" width="20" height="20" as="geometry" />
        </mxCell>
        <mxCell id="5yER8BtVRCcI6fA0JRAN-22" value="1" style="text;html=1;align=center;verticalAlign=middle;resizable=0;points=[];autosize=1;strokeColor=none;fillColor=none;fontColor=#FEFAE0;rotation=90;" vertex="1" parent="1">
          <mxGeometry x="500" y="210" width="20" height="20" as="geometry" />
        </mxCell>
        <mxCell id="5yER8BtVRCcI6fA0JRAN-23" value="9" style="text;html=1;align=center;verticalAlign=middle;resizable=0;points=[];autosize=1;strokeColor=none;fillColor=none;fontColor=#FEFAE0;" vertex="1" parent="1">
          <mxGeometry x="200" y="190" width="20" height="20" as="geometry" />
        </mxCell>
        <mxCell id="5yER8BtVRCcI6fA0JRAN-24" value="3" style="text;html=1;align=center;verticalAlign=middle;resizable=0;points=[];autosize=1;strokeColor=none;fillColor=none;fontColor=#FEFAE0;" vertex="1" parent="1">
          <mxGeometry x="330" y="260" width="20" height="20" as="geometry" />
        </mxCell>
        <mxCell id="5yER8BtVRCcI6fA0JRAN-25" value="2" style="text;html=1;align=center;verticalAlign=middle;resizable=0;points=[];autosize=1;strokeColor=none;fillColor=none;fontColor=#FEFAE0;rotation=0;" vertex="1" parent="1">
          <mxGeometry x="420" y="180" width="20" height="20" as="geometry" />
        </mxCell>
        <mxCell id="5yER8BtVRCcI6fA0JRAN-26" value="4" style="text;html=1;align=center;verticalAlign=middle;resizable=0;points=[];autosize=1;strokeColor=none;fillColor=none;fontColor=#FEFAE0;rotation=45;" vertex="1" parent="1">
          <mxGeometry x="260" y="150" width="20" height="20" as="geometry" />
        </mxCell>
        <mxCell id="5yER8BtVRCcI6fA0JRAN-27" value="cstutorial.org" style="text;html=1;align=center;verticalAlign=middle;resizable=0;points=[];autosize=1;strokeColor=none;fillColor=none;fontColor=#FEFAE0;" vertex="1" parent="1">
          <mxGeometry x="420" y="280" width="100" height="20" as="geometry" />
        </mxCell>
        <mxCell id="5yER8BtVRCcI6fA0JRAN-29" value="10" style="text;html=1;align=center;verticalAlign=middle;resizable=0;points=[];autosize=1;strokeColor=none;fillColor=none;fontColor=#FEFAE0;rotation=15;" vertex="1" parent="1">
          <mxGeometry x="345" y="140" width="30" height="20" as="geometry" />
        </mxCell>
      </root>
    </mxGraphModel>
  </diagram>
  <diagram id="GltnwzeYjBU80Ihsvlbm" name="Page-2">
    <mxGraphModel dx="832" dy="452" grid="1" gridSize="10" guides="1" tooltips="1" connect="1" arrows="1" fold="1" page="1" pageScale="1" pageWidth="650" pageHeight="400" background="#283618" math="1" shadow="0">
      <root>
        <mxCell id="0" />
        <mxCell id="1" parent="0" />
        <mxCell id="ScwShqFY8vGH9v9vtO_x-1" style="rounded=0;orthogonalLoop=1;jettySize=auto;html=1;exitX=0.5;exitY=1;exitDx=0;exitDy=0;entryX=0.5;entryY=0;entryDx=0;entryDy=0;labelBackgroundColor=#283618;strokeColor=#DDA15E;fontColor=#FEFAE0;" edge="1" parent="1" source="ScwShqFY8vGH9v9vtO_x-4" target="ScwShqFY8vGH9v9vtO_x-12">
          <mxGeometry relative="1" as="geometry" />
        </mxCell>
        <mxCell id="ScwShqFY8vGH9v9vtO_x-2" style="edgeStyle=none;rounded=0;orthogonalLoop=1;jettySize=auto;html=1;exitX=1;exitY=0.5;exitDx=0;exitDy=0;entryX=0;entryY=0.5;entryDx=0;entryDy=0;labelBackgroundColor=#283618;strokeColor=#DDA15E;fontColor=#FEFAE0;" edge="1" parent="1" source="ScwShqFY8vGH9v9vtO_x-4" target="ScwShqFY8vGH9v9vtO_x-6">
          <mxGeometry relative="1" as="geometry" />
        </mxCell>
        <mxCell id="ScwShqFY8vGH9v9vtO_x-3" style="rounded=1;sketch=0;orthogonalLoop=1;jettySize=auto;html=1;exitX=1.075;exitY=0.675;exitDx=0;exitDy=0;entryX=0.075;entryY=0.325;entryDx=0;entryDy=0;fontColor=#FEFAE0;strokeColor=#DDA15E;fillColor=#BC6C25;entryPerimeter=0;exitPerimeter=0;labelBackgroundColor=#283618;" edge="1" parent="1" source="ScwShqFY8vGH9v9vtO_x-4" target="ScwShqFY8vGH9v9vtO_x-9">
          <mxGeometry relative="1" as="geometry" />
        </mxCell>
        <mxCell id="ScwShqFY8vGH9v9vtO_x-4" value="0" style="ellipse;whiteSpace=wrap;html=1;aspect=fixed;fillColor=#BC6C25;strokeColor=#DDA15E;fontColor=#FEFAE0;" vertex="1" parent="1">
          <mxGeometry x="10" y="90" width="40" height="40" as="geometry" />
        </mxCell>
        <mxCell id="ScwShqFY8vGH9v9vtO_x-5" style="edgeStyle=none;rounded=0;orthogonalLoop=1;jettySize=auto;html=1;exitX=1;exitY=0.5;exitDx=0;exitDy=0;entryX=0;entryY=0;entryDx=0;entryDy=0;labelBackgroundColor=#283618;strokeColor=#DDA15E;fontColor=#FEFAE0;" edge="1" parent="1" source="ScwShqFY8vGH9v9vtO_x-6" target="ScwShqFY8vGH9v9vtO_x-9">
          <mxGeometry relative="1" as="geometry" />
        </mxCell>
        <mxCell id="ScwShqFY8vGH9v9vtO_x-6" value="1" style="ellipse;whiteSpace=wrap;html=1;aspect=fixed;fillColor=#BC6C25;strokeColor=#DDA15E;fontColor=#FEFAE0;" vertex="1" parent="1">
          <mxGeometry x="170" y="90" width="40" height="40" as="geometry" />
        </mxCell>
        <mxCell id="ScwShqFY8vGH9v9vtO_x-7" style="edgeStyle=none;rounded=0;orthogonalLoop=1;jettySize=auto;html=1;exitX=0.5;exitY=1;exitDx=0;exitDy=0;entryX=0.5;entryY=0;entryDx=0;entryDy=0;labelBackgroundColor=#283618;strokeColor=#DDA15E;fontColor=#FEFAE0;" edge="1" parent="1" source="ScwShqFY8vGH9v9vtO_x-9" target="ScwShqFY8vGH9v9vtO_x-10">
          <mxGeometry relative="1" as="geometry" />
        </mxCell>
        <mxCell id="ScwShqFY8vGH9v9vtO_x-8" style="edgeStyle=none;rounded=0;orthogonalLoop=1;jettySize=auto;html=1;exitX=0;exitY=0.5;exitDx=0;exitDy=0;entryX=1;entryY=0.5;entryDx=0;entryDy=0;labelBackgroundColor=#283618;strokeColor=#DDA15E;fontColor=#FEFAE0;" edge="1" parent="1" source="ScwShqFY8vGH9v9vtO_x-9" target="ScwShqFY8vGH9v9vtO_x-14">
          <mxGeometry relative="1" as="geometry" />
        </mxCell>
        <mxCell id="ScwShqFY8vGH9v9vtO_x-9" value="2" style="ellipse;whiteSpace=wrap;html=1;aspect=fixed;fillColor=#BC6C25;strokeColor=#DDA15E;fontColor=#FEFAE0;" vertex="1" parent="1">
          <mxGeometry x="290" y="170" width="40" height="40" as="geometry" />
        </mxCell>
        <mxCell id="ScwShqFY8vGH9v9vtO_x-10" value="3" style="ellipse;whiteSpace=wrap;html=1;aspect=fixed;fillColor=#BC6C25;strokeColor=#DDA15E;fontColor=#FEFAE0;" vertex="1" parent="1">
          <mxGeometry x="290" y="250" width="40" height="40" as="geometry" />
        </mxCell>
        <mxCell id="ScwShqFY8vGH9v9vtO_x-11" style="edgeStyle=none;rounded=0;orthogonalLoop=1;jettySize=auto;html=1;exitX=1;exitY=0.5;exitDx=0;exitDy=0;entryX=0;entryY=0.5;entryDx=0;entryDy=0;labelBackgroundColor=#283618;strokeColor=#DDA15E;fontColor=#FEFAE0;" edge="1" parent="1" source="ScwShqFY8vGH9v9vtO_x-12" target="ScwShqFY8vGH9v9vtO_x-10">
          <mxGeometry relative="1" as="geometry" />
        </mxCell>
        <mxCell id="ScwShqFY8vGH9v9vtO_x-12" value="4" style="ellipse;whiteSpace=wrap;html=1;aspect=fixed;fillColor=#BC6C25;strokeColor=#DDA15E;fontColor=#FEFAE0;" vertex="1" parent="1">
          <mxGeometry x="10" y="250" width="40" height="40" as="geometry" />
        </mxCell>
        <mxCell id="ScwShqFY8vGH9v9vtO_x-13" style="edgeStyle=none;rounded=0;orthogonalLoop=1;jettySize=auto;html=1;exitX=0;exitY=0.5;exitDx=0;exitDy=0;entryX=1;entryY=1;entryDx=0;entryDy=0;labelBackgroundColor=#283618;strokeColor=#DDA15E;fontColor=#FEFAE0;" edge="1" parent="1" source="ScwShqFY8vGH9v9vtO_x-14" target="ScwShqFY8vGH9v9vtO_x-4">
          <mxGeometry relative="1" as="geometry" />
        </mxCell>
        <mxCell id="ScwShqFY8vGH9v9vtO_x-14" value="5" style="ellipse;whiteSpace=wrap;html=1;aspect=fixed;fillColor=#BC6C25;strokeColor=#DDA15E;fontColor=#FEFAE0;" vertex="1" parent="1">
          <mxGeometry x="120" y="170" width="40" height="40" as="geometry" />
        </mxCell>
        <mxCell id="ScwShqFY8vGH9v9vtO_x-15" value="4" style="text;html=1;align=center;verticalAlign=middle;resizable=0;points=[];autosize=1;strokeColor=none;fillColor=none;fontColor=#FEFAE0;" vertex="1" parent="1">
          <mxGeometry x="100" y="110" width="20" height="20" as="geometry" />
        </mxCell>
        <mxCell id="ScwShqFY8vGH9v9vtO_x-16" value="3" style="text;html=1;align=center;verticalAlign=middle;resizable=0;points=[];autosize=1;strokeColor=none;fillColor=none;fontColor=#FEFAE0;rotation=15;" vertex="1" parent="1">
          <mxGeometry x="240" y="140" width="20" height="20" as="geometry" />
        </mxCell>
        <mxCell id="ScwShqFY8vGH9v9vtO_x-17" value="1" style="text;html=1;align=center;verticalAlign=middle;resizable=0;points=[];autosize=1;strokeColor=none;fillColor=none;fontColor=#FEFAE0;rotation=90;" vertex="1" parent="1">
          <mxGeometry x="310" y="220" width="20" height="20" as="geometry" />
        </mxCell>
        <mxCell id="ScwShqFY8vGH9v9vtO_x-18" value="9" style="text;html=1;align=center;verticalAlign=middle;resizable=0;points=[];autosize=1;strokeColor=none;fillColor=none;fontColor=#FEFAE0;" vertex="1" parent="1">
          <mxGeometry x="10" y="200" width="20" height="20" as="geometry" />
        </mxCell>
        <mxCell id="ScwShqFY8vGH9v9vtO_x-19" value="3" style="text;html=1;align=center;verticalAlign=middle;resizable=0;points=[];autosize=1;strokeColor=none;fillColor=none;fontColor=#FEFAE0;" vertex="1" parent="1">
          <mxGeometry x="140" y="270" width="20" height="20" as="geometry" />
        </mxCell>
        <mxCell id="ScwShqFY8vGH9v9vtO_x-20" value="2" style="text;html=1;align=center;verticalAlign=middle;resizable=0;points=[];autosize=1;strokeColor=none;fillColor=none;fontColor=#FEFAE0;rotation=0;" vertex="1" parent="1">
          <mxGeometry x="230" y="190" width="20" height="20" as="geometry" />
        </mxCell>
        <mxCell id="ScwShqFY8vGH9v9vtO_x-21" value="4" style="text;html=1;align=center;verticalAlign=middle;resizable=0;points=[];autosize=1;strokeColor=none;fillColor=none;fontColor=#FEFAE0;rotation=45;" vertex="1" parent="1">
          <mxGeometry x="70" y="160" width="20" height="20" as="geometry" />
        </mxCell>
        <mxCell id="ScwShqFY8vGH9v9vtO_x-22" value="cstutorial.org" style="text;html=1;align=center;verticalAlign=middle;resizable=0;points=[];autosize=1;strokeColor=none;fillColor=none;fontColor=#FEFAE0;" vertex="1" parent="1">
          <mxGeometry x="425" y="290" width="100" height="20" as="geometry" />
        </mxCell>
        <mxCell id="ScwShqFY8vGH9v9vtO_x-23" value="10" style="text;html=1;align=center;verticalAlign=middle;resizable=0;points=[];autosize=1;strokeColor=none;fillColor=none;fontColor=#FEFAE0;rotation=15;" vertex="1" parent="1">
          <mxGeometry x="155" y="150" width="30" height="20" as="geometry" />
        </mxCell>
        <mxCell id="ScwShqFY8vGH9v9vtO_x-25" value="" style="endArrow=classic;html=1;rounded=1;sketch=0;fontColor=#FEFAE0;strokeColor=#DDA15E;fillColor=#BC6C25;curved=0;strokeWidth=2;" edge="1" parent="1">
          <mxGeometry width="50" height="50" relative="1" as="geometry">
            <mxPoint x="600" y="110" as="sourcePoint" />
            <mxPoint x="380" y="110" as="targetPoint" />
          </mxGeometry>
        </mxCell>
        <mxCell id="ScwShqFY8vGH9v9vtO_x-26" value="" style="endArrow=classic;html=1;rounded=1;sketch=0;fontColor=#FEFAE0;strokeColor=#DDA15E;fillColor=#BC6C25;curved=0;strokeWidth=2;" edge="1" parent="1">
          <mxGeometry width="50" height="50" relative="1" as="geometry">
            <mxPoint x="600" y="150" as="sourcePoint" />
            <mxPoint x="380" y="150" as="targetPoint" />
          </mxGeometry>
        </mxCell>
        <mxCell id="ScwShqFY8vGH9v9vtO_x-27" value="Queue q" style="text;html=1;align=center;verticalAlign=middle;resizable=0;points=[];autosize=1;strokeColor=none;fillColor=none;fontColor=#FEFAE0;" vertex="1" parent="1">
          <mxGeometry x="455" y="90" width="70" height="20" as="geometry" />
        </mxCell>
        <mxCell id="ScwShqFY8vGH9v9vtO_x-28" value="0" style="rounded=0;whiteSpace=wrap;html=1;sketch=0;fontColor=#FEFAE0;strokeColor=#DDA15E;fillColor=#BC6C25;" vertex="1" parent="1">
          <mxGeometry x="380" y="220" width="40" height="40" as="geometry" />
        </mxCell>
        <mxCell id="ScwShqFY8vGH9v9vtO_x-29" value="\(\infty\)" style="rounded=0;whiteSpace=wrap;html=1;sketch=0;fontColor=#FEFAE0;strokeColor=#DDA15E;fillColor=#BC6C25;" vertex="1" parent="1">
          <mxGeometry x="420" y="220" width="40" height="40" as="geometry" />
        </mxCell>
        <mxCell id="ScwShqFY8vGH9v9vtO_x-30" value="\(\infty\)" style="rounded=0;whiteSpace=wrap;html=1;sketch=0;fontColor=#FEFAE0;strokeColor=#DDA15E;fillColor=#BC6C25;" vertex="1" parent="1">
          <mxGeometry x="460" y="220" width="40" height="40" as="geometry" />
        </mxCell>
        <mxCell id="ScwShqFY8vGH9v9vtO_x-31" value="\(\infty\)" style="rounded=0;whiteSpace=wrap;html=1;sketch=0;fontColor=#FEFAE0;strokeColor=#DDA15E;fillColor=#BC6C25;" vertex="1" parent="1">
          <mxGeometry x="500" y="220" width="40" height="40" as="geometry" />
        </mxCell>
        <mxCell id="ScwShqFY8vGH9v9vtO_x-32" value="\(\infty\)" style="rounded=0;whiteSpace=wrap;html=1;sketch=0;fontColor=#FEFAE0;strokeColor=#DDA15E;fillColor=#BC6C25;" vertex="1" parent="1">
          <mxGeometry x="540" y="220" width="40" height="40" as="geometry" />
        </mxCell>
        <mxCell id="ScwShqFY8vGH9v9vtO_x-33" value="\(\infty\)" style="rounded=0;whiteSpace=wrap;html=1;sketch=0;fontColor=#FEFAE0;strokeColor=#DDA15E;fillColor=#BC6C25;" vertex="1" parent="1">
          <mxGeometry x="580" y="220" width="40" height="40" as="geometry" />
        </mxCell>
        <mxCell id="ScwShqFY8vGH9v9vtO_x-34" value="Distance from source 0" style="text;html=1;align=center;verticalAlign=middle;resizable=0;points=[];autosize=1;strokeColor=none;fillColor=none;fontColor=#FEFAE0;" vertex="1" parent="1">
          <mxGeometry x="425" y="200" width="160" height="20" as="geometry" />
        </mxCell>
        <mxCell id="ScwShqFY8vGH9v9vtO_x-35" value="0" style="text;html=1;align=center;verticalAlign=middle;resizable=0;points=[];autosize=1;strokeColor=none;fillColor=none;fontColor=#FEFAE0;" vertex="1" parent="1">
          <mxGeometry x="390" y="260" width="20" height="20" as="geometry" />
        </mxCell>
        <mxCell id="ScwShqFY8vGH9v9vtO_x-36" value="1" style="text;html=1;align=center;verticalAlign=middle;resizable=0;points=[];autosize=1;strokeColor=none;fillColor=none;fontColor=#FEFAE0;" vertex="1" parent="1">
          <mxGeometry x="430" y="260" width="20" height="20" as="geometry" />
        </mxCell>
        <mxCell id="ScwShqFY8vGH9v9vtO_x-37" value="2" style="text;html=1;align=center;verticalAlign=middle;resizable=0;points=[];autosize=1;strokeColor=none;fillColor=none;fontColor=#FEFAE0;" vertex="1" parent="1">
          <mxGeometry x="470" y="260" width="20" height="20" as="geometry" />
        </mxCell>
        <mxCell id="ScwShqFY8vGH9v9vtO_x-38" value="3" style="text;html=1;align=center;verticalAlign=middle;resizable=0;points=[];autosize=1;strokeColor=none;fillColor=none;fontColor=#FEFAE0;" vertex="1" parent="1">
          <mxGeometry x="510" y="260" width="20" height="20" as="geometry" />
        </mxCell>
        <mxCell id="ScwShqFY8vGH9v9vtO_x-39" value="4" style="text;html=1;align=center;verticalAlign=middle;resizable=0;points=[];autosize=1;strokeColor=none;fillColor=none;fontColor=#FEFAE0;" vertex="1" parent="1">
          <mxGeometry x="550" y="260" width="20" height="20" as="geometry" />
        </mxCell>
        <mxCell id="ScwShqFY8vGH9v9vtO_x-40" value="5" style="text;html=1;align=center;verticalAlign=middle;resizable=0;points=[];autosize=1;strokeColor=none;fillColor=none;fontColor=#FEFAE0;" vertex="1" parent="1">
          <mxGeometry x="590" y="260" width="20" height="20" as="geometry" />
        </mxCell>
        <mxCell id="ScwShqFY8vGH9v9vtO_x-41" value="0" style="text;html=1;align=center;verticalAlign=middle;resizable=0;points=[];autosize=1;strokeColor=none;fillColor=none;fontColor=#FEFAE0;" vertex="1" parent="1">
          <mxGeometry x="400" y="120" width="20" height="20" as="geometry" />
        </mxCell>
      </root>
    </mxGraphModel>
  </diagram>
  <diagram id="B7F3vLIX5WR5P83fvXXE" name="Page-3">
    <mxGraphModel dx="832" dy="452" grid="1" gridSize="10" guides="1" tooltips="1" connect="1" arrows="1" fold="1" page="1" pageScale="1" pageWidth="650" pageHeight="400" background="#283618" math="1" shadow="0">
      <root>
        <mxCell id="0" />
        <mxCell id="1" parent="0" />
        <mxCell id="TnG91OpNcSo6G3A0_JBT-1" style="rounded=0;orthogonalLoop=1;jettySize=auto;html=1;exitX=0.5;exitY=1;exitDx=0;exitDy=0;entryX=0.5;entryY=0;entryDx=0;entryDy=0;labelBackgroundColor=#283618;strokeColor=#DDA15E;fontColor=#FEFAE0;" edge="1" parent="1" source="TnG91OpNcSo6G3A0_JBT-4" target="TnG91OpNcSo6G3A0_JBT-12">
          <mxGeometry relative="1" as="geometry" />
        </mxCell>
        <mxCell id="TnG91OpNcSo6G3A0_JBT-2" style="edgeStyle=none;rounded=0;orthogonalLoop=1;jettySize=auto;html=1;exitX=1;exitY=0.5;exitDx=0;exitDy=0;entryX=0;entryY=0.5;entryDx=0;entryDy=0;labelBackgroundColor=#283618;strokeColor=#DDA15E;fontColor=#FEFAE0;" edge="1" parent="1" source="TnG91OpNcSo6G3A0_JBT-4" target="TnG91OpNcSo6G3A0_JBT-6">
          <mxGeometry relative="1" as="geometry" />
        </mxCell>
        <mxCell id="TnG91OpNcSo6G3A0_JBT-3" style="rounded=1;sketch=0;orthogonalLoop=1;jettySize=auto;html=1;exitX=1.075;exitY=0.675;exitDx=0;exitDy=0;entryX=0.075;entryY=0.325;entryDx=0;entryDy=0;fontColor=#FEFAE0;strokeColor=#DDA15E;fillColor=#BC6C25;entryPerimeter=0;exitPerimeter=0;labelBackgroundColor=#283618;" edge="1" parent="1" source="TnG91OpNcSo6G3A0_JBT-4" target="TnG91OpNcSo6G3A0_JBT-9">
          <mxGeometry relative="1" as="geometry" />
        </mxCell>
        <mxCell id="TnG91OpNcSo6G3A0_JBT-4" value="0" style="ellipse;whiteSpace=wrap;html=1;aspect=fixed;fillColor=#BC6C25;strokeColor=#DDA15E;fontColor=#FEFAE0;" vertex="1" parent="1">
          <mxGeometry x="10" y="90" width="40" height="40" as="geometry" />
        </mxCell>
        <mxCell id="TnG91OpNcSo6G3A0_JBT-5" style="edgeStyle=none;rounded=0;orthogonalLoop=1;jettySize=auto;html=1;exitX=1;exitY=0.5;exitDx=0;exitDy=0;entryX=0;entryY=0;entryDx=0;entryDy=0;labelBackgroundColor=#283618;strokeColor=#DDA15E;fontColor=#FEFAE0;" edge="1" parent="1" source="TnG91OpNcSo6G3A0_JBT-6" target="TnG91OpNcSo6G3A0_JBT-9">
          <mxGeometry relative="1" as="geometry" />
        </mxCell>
        <mxCell id="TnG91OpNcSo6G3A0_JBT-6" value="1" style="ellipse;whiteSpace=wrap;html=1;aspect=fixed;fillColor=#BC6C25;strokeColor=#DDA15E;fontColor=#FEFAE0;" vertex="1" parent="1">
          <mxGeometry x="170" y="90" width="40" height="40" as="geometry" />
        </mxCell>
        <mxCell id="TnG91OpNcSo6G3A0_JBT-7" style="edgeStyle=none;rounded=0;orthogonalLoop=1;jettySize=auto;html=1;exitX=0.5;exitY=1;exitDx=0;exitDy=0;entryX=0.5;entryY=0;entryDx=0;entryDy=0;labelBackgroundColor=#283618;strokeColor=#DDA15E;fontColor=#FEFAE0;" edge="1" parent="1" source="TnG91OpNcSo6G3A0_JBT-9" target="TnG91OpNcSo6G3A0_JBT-10">
          <mxGeometry relative="1" as="geometry" />
        </mxCell>
        <mxCell id="TnG91OpNcSo6G3A0_JBT-8" style="edgeStyle=none;rounded=0;orthogonalLoop=1;jettySize=auto;html=1;exitX=0;exitY=0.5;exitDx=0;exitDy=0;entryX=1;entryY=0.5;entryDx=0;entryDy=0;labelBackgroundColor=#283618;strokeColor=#DDA15E;fontColor=#FEFAE0;" edge="1" parent="1" source="TnG91OpNcSo6G3A0_JBT-9" target="TnG91OpNcSo6G3A0_JBT-14">
          <mxGeometry relative="1" as="geometry" />
        </mxCell>
        <mxCell id="TnG91OpNcSo6G3A0_JBT-9" value="2" style="ellipse;whiteSpace=wrap;html=1;aspect=fixed;fillColor=#BC6C25;strokeColor=#DDA15E;fontColor=#FEFAE0;" vertex="1" parent="1">
          <mxGeometry x="290" y="170" width="40" height="40" as="geometry" />
        </mxCell>
        <mxCell id="TnG91OpNcSo6G3A0_JBT-10" value="3" style="ellipse;whiteSpace=wrap;html=1;aspect=fixed;fillColor=#BC6C25;strokeColor=#DDA15E;fontColor=#FEFAE0;" vertex="1" parent="1">
          <mxGeometry x="290" y="250" width="40" height="40" as="geometry" />
        </mxCell>
        <mxCell id="TnG91OpNcSo6G3A0_JBT-11" style="edgeStyle=none;rounded=0;orthogonalLoop=1;jettySize=auto;html=1;exitX=1;exitY=0.5;exitDx=0;exitDy=0;entryX=0;entryY=0.5;entryDx=0;entryDy=0;labelBackgroundColor=#283618;strokeColor=#DDA15E;fontColor=#FEFAE0;" edge="1" parent="1" source="TnG91OpNcSo6G3A0_JBT-12" target="TnG91OpNcSo6G3A0_JBT-10">
          <mxGeometry relative="1" as="geometry" />
        </mxCell>
        <mxCell id="TnG91OpNcSo6G3A0_JBT-12" value="4" style="ellipse;whiteSpace=wrap;html=1;aspect=fixed;fillColor=#BC6C25;strokeColor=#DDA15E;fontColor=#FEFAE0;" vertex="1" parent="1">
          <mxGeometry x="10" y="250" width="40" height="40" as="geometry" />
        </mxCell>
        <mxCell id="TnG91OpNcSo6G3A0_JBT-13" style="edgeStyle=none;rounded=0;orthogonalLoop=1;jettySize=auto;html=1;exitX=0;exitY=0.5;exitDx=0;exitDy=0;entryX=1;entryY=1;entryDx=0;entryDy=0;labelBackgroundColor=#283618;strokeColor=#DDA15E;fontColor=#FEFAE0;" edge="1" parent="1" source="TnG91OpNcSo6G3A0_JBT-14" target="TnG91OpNcSo6G3A0_JBT-4">
          <mxGeometry relative="1" as="geometry" />
        </mxCell>
        <mxCell id="TnG91OpNcSo6G3A0_JBT-14" value="5" style="ellipse;whiteSpace=wrap;html=1;aspect=fixed;fillColor=#BC6C25;strokeColor=#DDA15E;fontColor=#FEFAE0;" vertex="1" parent="1">
          <mxGeometry x="120" y="170" width="40" height="40" as="geometry" />
        </mxCell>
        <mxCell id="TnG91OpNcSo6G3A0_JBT-15" value="4" style="text;html=1;align=center;verticalAlign=middle;resizable=0;points=[];autosize=1;strokeColor=none;fillColor=none;fontColor=#FEFAE0;" vertex="1" parent="1">
          <mxGeometry x="100" y="110" width="20" height="20" as="geometry" />
        </mxCell>
        <mxCell id="TnG91OpNcSo6G3A0_JBT-16" value="3" style="text;html=1;align=center;verticalAlign=middle;resizable=0;points=[];autosize=1;strokeColor=none;fillColor=none;fontColor=#FEFAE0;rotation=15;" vertex="1" parent="1">
          <mxGeometry x="240" y="140" width="20" height="20" as="geometry" />
        </mxCell>
        <mxCell id="TnG91OpNcSo6G3A0_JBT-17" value="1" style="text;html=1;align=center;verticalAlign=middle;resizable=0;points=[];autosize=1;strokeColor=none;fillColor=none;fontColor=#FEFAE0;rotation=90;" vertex="1" parent="1">
          <mxGeometry x="310" y="220" width="20" height="20" as="geometry" />
        </mxCell>
        <mxCell id="TnG91OpNcSo6G3A0_JBT-18" value="9" style="text;html=1;align=center;verticalAlign=middle;resizable=0;points=[];autosize=1;strokeColor=none;fillColor=none;fontColor=#FEFAE0;" vertex="1" parent="1">
          <mxGeometry x="10" y="200" width="20" height="20" as="geometry" />
        </mxCell>
        <mxCell id="TnG91OpNcSo6G3A0_JBT-19" value="3" style="text;html=1;align=center;verticalAlign=middle;resizable=0;points=[];autosize=1;strokeColor=none;fillColor=none;fontColor=#FEFAE0;" vertex="1" parent="1">
          <mxGeometry x="140" y="270" width="20" height="20" as="geometry" />
        </mxCell>
        <mxCell id="TnG91OpNcSo6G3A0_JBT-20" value="2" style="text;html=1;align=center;verticalAlign=middle;resizable=0;points=[];autosize=1;strokeColor=none;fillColor=none;fontColor=#FEFAE0;rotation=0;" vertex="1" parent="1">
          <mxGeometry x="230" y="190" width="20" height="20" as="geometry" />
        </mxCell>
        <mxCell id="TnG91OpNcSo6G3A0_JBT-21" value="4" style="text;html=1;align=center;verticalAlign=middle;resizable=0;points=[];autosize=1;strokeColor=none;fillColor=none;fontColor=#FEFAE0;rotation=45;" vertex="1" parent="1">
          <mxGeometry x="70" y="160" width="20" height="20" as="geometry" />
        </mxCell>
        <mxCell id="TnG91OpNcSo6G3A0_JBT-22" value="cstutorial.org" style="text;html=1;align=center;verticalAlign=middle;resizable=0;points=[];autosize=1;strokeColor=none;fillColor=none;fontColor=#FEFAE0;" vertex="1" parent="1">
          <mxGeometry x="425" y="290" width="100" height="20" as="geometry" />
        </mxCell>
        <mxCell id="TnG91OpNcSo6G3A0_JBT-23" value="10" style="text;html=1;align=center;verticalAlign=middle;resizable=0;points=[];autosize=1;strokeColor=none;fillColor=none;fontColor=#FEFAE0;rotation=15;" vertex="1" parent="1">
          <mxGeometry x="155" y="150" width="30" height="20" as="geometry" />
        </mxCell>
        <mxCell id="TnG91OpNcSo6G3A0_JBT-24" value="" style="endArrow=classic;html=1;rounded=1;sketch=0;fontColor=#FEFAE0;strokeColor=#DDA15E;fillColor=#BC6C25;curved=0;strokeWidth=2;labelBackgroundColor=#283618;" edge="1" parent="1">
          <mxGeometry width="50" height="50" relative="1" as="geometry">
            <mxPoint x="600" y="110" as="sourcePoint" />
            <mxPoint x="380" y="110" as="targetPoint" />
          </mxGeometry>
        </mxCell>
        <mxCell id="TnG91OpNcSo6G3A0_JBT-25" value="" style="endArrow=classic;html=1;rounded=1;sketch=0;fontColor=#FEFAE0;strokeColor=#DDA15E;fillColor=#BC6C25;curved=0;strokeWidth=2;labelBackgroundColor=#283618;" edge="1" parent="1">
          <mxGeometry width="50" height="50" relative="1" as="geometry">
            <mxPoint x="600" y="150" as="sourcePoint" />
            <mxPoint x="380" y="150" as="targetPoint" />
          </mxGeometry>
        </mxCell>
        <mxCell id="TnG91OpNcSo6G3A0_JBT-26" value="Queue q" style="text;html=1;align=center;verticalAlign=middle;resizable=0;points=[];autosize=1;strokeColor=none;fillColor=none;fontColor=#FEFAE0;" vertex="1" parent="1">
          <mxGeometry x="455" y="90" width="70" height="20" as="geometry" />
        </mxCell>
        <mxCell id="TnG91OpNcSo6G3A0_JBT-27" value="0" style="rounded=0;whiteSpace=wrap;html=1;sketch=0;fontColor=#FEFAE0;strokeColor=#DDA15E;fillColor=#BC6C25;" vertex="1" parent="1">
          <mxGeometry x="380" y="220" width="40" height="40" as="geometry" />
        </mxCell>
        <mxCell id="TnG91OpNcSo6G3A0_JBT-28" value="4" style="rounded=0;whiteSpace=wrap;html=1;sketch=0;fontColor=#FEFAE0;strokeColor=#DDA15E;fillColor=#BC6C25;" vertex="1" parent="1">
          <mxGeometry x="420" y="220" width="40" height="40" as="geometry" />
        </mxCell>
        <mxCell id="TnG91OpNcSo6G3A0_JBT-29" value="10" style="rounded=0;whiteSpace=wrap;html=1;sketch=0;fontColor=#FEFAE0;strokeColor=#DDA15E;fillColor=#BC6C25;" vertex="1" parent="1">
          <mxGeometry x="460" y="220" width="40" height="40" as="geometry" />
        </mxCell>
        <mxCell id="TnG91OpNcSo6G3A0_JBT-30" value="\(\infty\)" style="rounded=0;whiteSpace=wrap;html=1;sketch=0;fontColor=#FEFAE0;strokeColor=#DDA15E;fillColor=#BC6C25;" vertex="1" parent="1">
          <mxGeometry x="500" y="220" width="40" height="40" as="geometry" />
        </mxCell>
        <mxCell id="TnG91OpNcSo6G3A0_JBT-31" value="9" style="rounded=0;whiteSpace=wrap;html=1;sketch=0;fontColor=#FEFAE0;strokeColor=#DDA15E;fillColor=#BC6C25;" vertex="1" parent="1">
          <mxGeometry x="540" y="220" width="40" height="40" as="geometry" />
        </mxCell>
        <mxCell id="TnG91OpNcSo6G3A0_JBT-32" value="\(\infty\)" style="rounded=0;whiteSpace=wrap;html=1;sketch=0;fontColor=#FEFAE0;strokeColor=#DDA15E;fillColor=#BC6C25;" vertex="1" parent="1">
          <mxGeometry x="580" y="220" width="40" height="40" as="geometry" />
        </mxCell>
        <mxCell id="TnG91OpNcSo6G3A0_JBT-33" value="Distance from source 0" style="text;html=1;align=center;verticalAlign=middle;resizable=0;points=[];autosize=1;strokeColor=none;fillColor=none;fontColor=#FEFAE0;" vertex="1" parent="1">
          <mxGeometry x="425" y="200" width="160" height="20" as="geometry" />
        </mxCell>
        <mxCell id="TnG91OpNcSo6G3A0_JBT-34" value="0" style="text;html=1;align=center;verticalAlign=middle;resizable=0;points=[];autosize=1;strokeColor=none;fillColor=none;fontColor=#FEFAE0;" vertex="1" parent="1">
          <mxGeometry x="390" y="260" width="20" height="20" as="geometry" />
        </mxCell>
        <mxCell id="TnG91OpNcSo6G3A0_JBT-35" value="1" style="text;html=1;align=center;verticalAlign=middle;resizable=0;points=[];autosize=1;strokeColor=none;fillColor=none;fontColor=#FEFAE0;" vertex="1" parent="1">
          <mxGeometry x="430" y="260" width="20" height="20" as="geometry" />
        </mxCell>
        <mxCell id="TnG91OpNcSo6G3A0_JBT-36" value="2" style="text;html=1;align=center;verticalAlign=middle;resizable=0;points=[];autosize=1;strokeColor=none;fillColor=none;fontColor=#FEFAE0;" vertex="1" parent="1">
          <mxGeometry x="470" y="260" width="20" height="20" as="geometry" />
        </mxCell>
        <mxCell id="TnG91OpNcSo6G3A0_JBT-37" value="3" style="text;html=1;align=center;verticalAlign=middle;resizable=0;points=[];autosize=1;strokeColor=none;fillColor=none;fontColor=#FEFAE0;" vertex="1" parent="1">
          <mxGeometry x="510" y="260" width="20" height="20" as="geometry" />
        </mxCell>
        <mxCell id="TnG91OpNcSo6G3A0_JBT-38" value="4" style="text;html=1;align=center;verticalAlign=middle;resizable=0;points=[];autosize=1;strokeColor=none;fillColor=none;fontColor=#FEFAE0;" vertex="1" parent="1">
          <mxGeometry x="550" y="260" width="20" height="20" as="geometry" />
        </mxCell>
        <mxCell id="TnG91OpNcSo6G3A0_JBT-39" value="5" style="text;html=1;align=center;verticalAlign=middle;resizable=0;points=[];autosize=1;strokeColor=none;fillColor=none;fontColor=#FEFAE0;" vertex="1" parent="1">
          <mxGeometry x="590" y="260" width="20" height="20" as="geometry" />
        </mxCell>
        <mxCell id="TnG91OpNcSo6G3A0_JBT-40" value="1" style="text;html=1;align=center;verticalAlign=middle;resizable=0;points=[];autosize=1;strokeColor=none;fillColor=none;fontColor=#FEFAE0;" vertex="1" parent="1">
          <mxGeometry x="400" y="120" width="20" height="20" as="geometry" />
        </mxCell>
        <mxCell id="Lny4TvT0YaIWfY1nHxS--2" value="2" style="text;html=1;align=center;verticalAlign=middle;resizable=0;points=[];autosize=1;strokeColor=none;fillColor=none;fontColor=#FEFAE0;" vertex="1" parent="1">
          <mxGeometry x="420" y="120" width="20" height="20" as="geometry" />
        </mxCell>
        <mxCell id="Lny4TvT0YaIWfY1nHxS--3" value="4" style="text;html=1;align=center;verticalAlign=middle;resizable=0;points=[];autosize=1;strokeColor=none;fillColor=none;fontColor=#FEFAE0;" vertex="1" parent="1">
          <mxGeometry x="440" y="120" width="20" height="20" as="geometry" />
        </mxCell>
      </root>
    </mxGraphModel>
  </diagram>
  <diagram id="jcwiJEAhCcobWqC0MN6y" name="Page-4">
    <mxGraphModel dx="832" dy="452" grid="1" gridSize="10" guides="1" tooltips="1" connect="1" arrows="1" fold="1" page="1" pageScale="1" pageWidth="650" pageHeight="400" background="#283618" math="1" shadow="0">
      <root>
        <mxCell id="0" />
        <mxCell id="1" parent="0" />
        <mxCell id="vURlozzTER0y_umTKzR2-1" style="rounded=0;orthogonalLoop=1;jettySize=auto;html=1;exitX=0.5;exitY=1;exitDx=0;exitDy=0;entryX=0.5;entryY=0;entryDx=0;entryDy=0;labelBackgroundColor=#283618;strokeColor=#DDA15E;fontColor=#FEFAE0;" edge="1" parent="1" source="vURlozzTER0y_umTKzR2-4" target="vURlozzTER0y_umTKzR2-12">
          <mxGeometry relative="1" as="geometry" />
        </mxCell>
        <mxCell id="vURlozzTER0y_umTKzR2-2" style="edgeStyle=none;rounded=0;orthogonalLoop=1;jettySize=auto;html=1;exitX=1;exitY=0.5;exitDx=0;exitDy=0;entryX=0;entryY=0.5;entryDx=0;entryDy=0;labelBackgroundColor=#283618;strokeColor=#DDA15E;fontColor=#FEFAE0;" edge="1" parent="1" source="vURlozzTER0y_umTKzR2-4" target="vURlozzTER0y_umTKzR2-6">
          <mxGeometry relative="1" as="geometry" />
        </mxCell>
        <mxCell id="vURlozzTER0y_umTKzR2-3" style="rounded=1;sketch=0;orthogonalLoop=1;jettySize=auto;html=1;exitX=1.075;exitY=0.675;exitDx=0;exitDy=0;entryX=0.075;entryY=0.325;entryDx=0;entryDy=0;fontColor=#FEFAE0;strokeColor=#DDA15E;fillColor=#BC6C25;entryPerimeter=0;exitPerimeter=0;labelBackgroundColor=#283618;" edge="1" parent="1" source="vURlozzTER0y_umTKzR2-4" target="vURlozzTER0y_umTKzR2-9">
          <mxGeometry relative="1" as="geometry" />
        </mxCell>
        <mxCell id="vURlozzTER0y_umTKzR2-4" value="0" style="ellipse;whiteSpace=wrap;html=1;aspect=fixed;fillColor=#BC6C25;strokeColor=#DDA15E;fontColor=#FEFAE0;" vertex="1" parent="1">
          <mxGeometry x="10" y="90" width="40" height="40" as="geometry" />
        </mxCell>
        <mxCell id="vURlozzTER0y_umTKzR2-5" style="edgeStyle=none;rounded=0;orthogonalLoop=1;jettySize=auto;html=1;exitX=1;exitY=0.5;exitDx=0;exitDy=0;entryX=0;entryY=0;entryDx=0;entryDy=0;labelBackgroundColor=#283618;strokeColor=#DDA15E;fontColor=#FEFAE0;" edge="1" parent="1" source="vURlozzTER0y_umTKzR2-6" target="vURlozzTER0y_umTKzR2-9">
          <mxGeometry relative="1" as="geometry" />
        </mxCell>
        <mxCell id="vURlozzTER0y_umTKzR2-6" value="1" style="ellipse;whiteSpace=wrap;html=1;aspect=fixed;fillColor=#BC6C25;strokeColor=#DDA15E;fontColor=#FEFAE0;" vertex="1" parent="1">
          <mxGeometry x="170" y="90" width="40" height="40" as="geometry" />
        </mxCell>
        <mxCell id="vURlozzTER0y_umTKzR2-7" style="edgeStyle=none;rounded=0;orthogonalLoop=1;jettySize=auto;html=1;exitX=0.5;exitY=1;exitDx=0;exitDy=0;entryX=0.5;entryY=0;entryDx=0;entryDy=0;labelBackgroundColor=#283618;strokeColor=#DDA15E;fontColor=#FEFAE0;" edge="1" parent="1" source="vURlozzTER0y_umTKzR2-9" target="vURlozzTER0y_umTKzR2-10">
          <mxGeometry relative="1" as="geometry" />
        </mxCell>
        <mxCell id="vURlozzTER0y_umTKzR2-8" style="edgeStyle=none;rounded=0;orthogonalLoop=1;jettySize=auto;html=1;exitX=0;exitY=0.5;exitDx=0;exitDy=0;entryX=1;entryY=0.5;entryDx=0;entryDy=0;labelBackgroundColor=#283618;strokeColor=#DDA15E;fontColor=#FEFAE0;" edge="1" parent="1" source="vURlozzTER0y_umTKzR2-9" target="vURlozzTER0y_umTKzR2-14">
          <mxGeometry relative="1" as="geometry" />
        </mxCell>
        <mxCell id="vURlozzTER0y_umTKzR2-9" value="2" style="ellipse;whiteSpace=wrap;html=1;aspect=fixed;fillColor=#BC6C25;strokeColor=#DDA15E;fontColor=#FEFAE0;" vertex="1" parent="1">
          <mxGeometry x="290" y="170" width="40" height="40" as="geometry" />
        </mxCell>
        <mxCell id="vURlozzTER0y_umTKzR2-10" value="3" style="ellipse;whiteSpace=wrap;html=1;aspect=fixed;fillColor=#BC6C25;strokeColor=#DDA15E;fontColor=#FEFAE0;" vertex="1" parent="1">
          <mxGeometry x="290" y="250" width="40" height="40" as="geometry" />
        </mxCell>
        <mxCell id="vURlozzTER0y_umTKzR2-11" style="edgeStyle=none;rounded=0;orthogonalLoop=1;jettySize=auto;html=1;exitX=1;exitY=0.5;exitDx=0;exitDy=0;entryX=0;entryY=0.5;entryDx=0;entryDy=0;labelBackgroundColor=#283618;strokeColor=#DDA15E;fontColor=#FEFAE0;" edge="1" parent="1" source="vURlozzTER0y_umTKzR2-12" target="vURlozzTER0y_umTKzR2-10">
          <mxGeometry relative="1" as="geometry" />
        </mxCell>
        <mxCell id="vURlozzTER0y_umTKzR2-12" value="4" style="ellipse;whiteSpace=wrap;html=1;aspect=fixed;fillColor=#BC6C25;strokeColor=#DDA15E;fontColor=#FEFAE0;" vertex="1" parent="1">
          <mxGeometry x="10" y="250" width="40" height="40" as="geometry" />
        </mxCell>
        <mxCell id="vURlozzTER0y_umTKzR2-13" style="edgeStyle=none;rounded=0;orthogonalLoop=1;jettySize=auto;html=1;exitX=0;exitY=0.5;exitDx=0;exitDy=0;entryX=1;entryY=1;entryDx=0;entryDy=0;labelBackgroundColor=#283618;strokeColor=#DDA15E;fontColor=#FEFAE0;" edge="1" parent="1" source="vURlozzTER0y_umTKzR2-14" target="vURlozzTER0y_umTKzR2-4">
          <mxGeometry relative="1" as="geometry" />
        </mxCell>
        <mxCell id="vURlozzTER0y_umTKzR2-14" value="5" style="ellipse;whiteSpace=wrap;html=1;aspect=fixed;fillColor=#BC6C25;strokeColor=#DDA15E;fontColor=#FEFAE0;" vertex="1" parent="1">
          <mxGeometry x="120" y="170" width="40" height="40" as="geometry" />
        </mxCell>
        <mxCell id="vURlozzTER0y_umTKzR2-15" value="4" style="text;html=1;align=center;verticalAlign=middle;resizable=0;points=[];autosize=1;strokeColor=none;fillColor=none;fontColor=#FEFAE0;" vertex="1" parent="1">
          <mxGeometry x="100" y="110" width="20" height="20" as="geometry" />
        </mxCell>
        <mxCell id="vURlozzTER0y_umTKzR2-16" value="3" style="text;html=1;align=center;verticalAlign=middle;resizable=0;points=[];autosize=1;strokeColor=none;fillColor=none;fontColor=#FEFAE0;rotation=15;" vertex="1" parent="1">
          <mxGeometry x="240" y="140" width="20" height="20" as="geometry" />
        </mxCell>
        <mxCell id="vURlozzTER0y_umTKzR2-17" value="1" style="text;html=1;align=center;verticalAlign=middle;resizable=0;points=[];autosize=1;strokeColor=none;fillColor=none;fontColor=#FEFAE0;rotation=90;" vertex="1" parent="1">
          <mxGeometry x="310" y="220" width="20" height="20" as="geometry" />
        </mxCell>
        <mxCell id="vURlozzTER0y_umTKzR2-18" value="9" style="text;html=1;align=center;verticalAlign=middle;resizable=0;points=[];autosize=1;strokeColor=none;fillColor=none;fontColor=#FEFAE0;" vertex="1" parent="1">
          <mxGeometry x="10" y="200" width="20" height="20" as="geometry" />
        </mxCell>
        <mxCell id="vURlozzTER0y_umTKzR2-19" value="3" style="text;html=1;align=center;verticalAlign=middle;resizable=0;points=[];autosize=1;strokeColor=none;fillColor=none;fontColor=#FEFAE0;" vertex="1" parent="1">
          <mxGeometry x="140" y="270" width="20" height="20" as="geometry" />
        </mxCell>
        <mxCell id="vURlozzTER0y_umTKzR2-20" value="2" style="text;html=1;align=center;verticalAlign=middle;resizable=0;points=[];autosize=1;strokeColor=none;fillColor=none;fontColor=#FEFAE0;rotation=0;" vertex="1" parent="1">
          <mxGeometry x="230" y="190" width="20" height="20" as="geometry" />
        </mxCell>
        <mxCell id="vURlozzTER0y_umTKzR2-21" value="4" style="text;html=1;align=center;verticalAlign=middle;resizable=0;points=[];autosize=1;strokeColor=none;fillColor=none;fontColor=#FEFAE0;rotation=45;" vertex="1" parent="1">
          <mxGeometry x="70" y="160" width="20" height="20" as="geometry" />
        </mxCell>
        <mxCell id="vURlozzTER0y_umTKzR2-22" value="cstutorial.org" style="text;html=1;align=center;verticalAlign=middle;resizable=0;points=[];autosize=1;strokeColor=none;fillColor=none;fontColor=#FEFAE0;" vertex="1" parent="1">
          <mxGeometry x="425" y="290" width="100" height="20" as="geometry" />
        </mxCell>
        <mxCell id="vURlozzTER0y_umTKzR2-23" value="10" style="text;html=1;align=center;verticalAlign=middle;resizable=0;points=[];autosize=1;strokeColor=none;fillColor=none;fontColor=#FEFAE0;rotation=15;" vertex="1" parent="1">
          <mxGeometry x="155" y="150" width="30" height="20" as="geometry" />
        </mxCell>
        <mxCell id="vURlozzTER0y_umTKzR2-24" value="" style="endArrow=classic;html=1;rounded=1;sketch=0;fontColor=#FEFAE0;strokeColor=#DDA15E;fillColor=#BC6C25;curved=0;strokeWidth=2;labelBackgroundColor=#283618;" edge="1" parent="1">
          <mxGeometry width="50" height="50" relative="1" as="geometry">
            <mxPoint x="600" y="110" as="sourcePoint" />
            <mxPoint x="380" y="110" as="targetPoint" />
          </mxGeometry>
        </mxCell>
        <mxCell id="vURlozzTER0y_umTKzR2-25" value="" style="endArrow=classic;html=1;rounded=1;sketch=0;fontColor=#FEFAE0;strokeColor=#DDA15E;fillColor=#BC6C25;curved=0;strokeWidth=2;labelBackgroundColor=#283618;" edge="1" parent="1">
          <mxGeometry width="50" height="50" relative="1" as="geometry">
            <mxPoint x="600" y="150" as="sourcePoint" />
            <mxPoint x="380" y="150" as="targetPoint" />
          </mxGeometry>
        </mxCell>
        <mxCell id="vURlozzTER0y_umTKzR2-26" value="Queue q" style="text;html=1;align=center;verticalAlign=middle;resizable=0;points=[];autosize=1;strokeColor=none;fillColor=none;fontColor=#FEFAE0;" vertex="1" parent="1">
          <mxGeometry x="455" y="90" width="70" height="20" as="geometry" />
        </mxCell>
        <mxCell id="vURlozzTER0y_umTKzR2-27" value="0" style="rounded=0;whiteSpace=wrap;html=1;sketch=0;fontColor=#FEFAE0;strokeColor=#DDA15E;fillColor=#BC6C25;" vertex="1" parent="1">
          <mxGeometry x="380" y="220" width="40" height="40" as="geometry" />
        </mxCell>
        <mxCell id="vURlozzTER0y_umTKzR2-28" value="4" style="rounded=0;whiteSpace=wrap;html=1;sketch=0;fontColor=#FEFAE0;strokeColor=#DDA15E;fillColor=#BC6C25;" vertex="1" parent="1">
          <mxGeometry x="420" y="220" width="40" height="40" as="geometry" />
        </mxCell>
        <mxCell id="vURlozzTER0y_umTKzR2-29" value="7" style="rounded=0;whiteSpace=wrap;html=1;sketch=0;fontColor=#FEFAE0;strokeColor=#DDA15E;fillColor=#BC6C25;" vertex="1" parent="1">
          <mxGeometry x="460" y="220" width="40" height="40" as="geometry" />
        </mxCell>
        <mxCell id="vURlozzTER0y_umTKzR2-30" value="\(\infty\)" style="rounded=0;whiteSpace=wrap;html=1;sketch=0;fontColor=#FEFAE0;strokeColor=#DDA15E;fillColor=#BC6C25;" vertex="1" parent="1">
          <mxGeometry x="500" y="220" width="40" height="40" as="geometry" />
        </mxCell>
        <mxCell id="vURlozzTER0y_umTKzR2-31" value="9" style="rounded=0;whiteSpace=wrap;html=1;sketch=0;fontColor=#FEFAE0;strokeColor=#DDA15E;fillColor=#BC6C25;" vertex="1" parent="1">
          <mxGeometry x="540" y="220" width="40" height="40" as="geometry" />
        </mxCell>
        <mxCell id="vURlozzTER0y_umTKzR2-32" value="\(\infty\)" style="rounded=0;whiteSpace=wrap;html=1;sketch=0;fontColor=#FEFAE0;strokeColor=#DDA15E;fillColor=#BC6C25;" vertex="1" parent="1">
          <mxGeometry x="580" y="220" width="40" height="40" as="geometry" />
        </mxCell>
        <mxCell id="vURlozzTER0y_umTKzR2-33" value="Distance from source 0" style="text;html=1;align=center;verticalAlign=middle;resizable=0;points=[];autosize=1;strokeColor=none;fillColor=none;fontColor=#FEFAE0;" vertex="1" parent="1">
          <mxGeometry x="425" y="200" width="160" height="20" as="geometry" />
        </mxCell>
        <mxCell id="vURlozzTER0y_umTKzR2-34" value="0" style="text;html=1;align=center;verticalAlign=middle;resizable=0;points=[];autosize=1;strokeColor=none;fillColor=none;fontColor=#FEFAE0;" vertex="1" parent="1">
          <mxGeometry x="390" y="260" width="20" height="20" as="geometry" />
        </mxCell>
        <mxCell id="vURlozzTER0y_umTKzR2-35" value="1" style="text;html=1;align=center;verticalAlign=middle;resizable=0;points=[];autosize=1;strokeColor=none;fillColor=none;fontColor=#FEFAE0;" vertex="1" parent="1">
          <mxGeometry x="430" y="260" width="20" height="20" as="geometry" />
        </mxCell>
        <mxCell id="vURlozzTER0y_umTKzR2-36" value="2" style="text;html=1;align=center;verticalAlign=middle;resizable=0;points=[];autosize=1;strokeColor=none;fillColor=none;fontColor=#FEFAE0;" vertex="1" parent="1">
          <mxGeometry x="470" y="260" width="20" height="20" as="geometry" />
        </mxCell>
        <mxCell id="vURlozzTER0y_umTKzR2-37" value="3" style="text;html=1;align=center;verticalAlign=middle;resizable=0;points=[];autosize=1;strokeColor=none;fillColor=none;fontColor=#FEFAE0;" vertex="1" parent="1">
          <mxGeometry x="510" y="260" width="20" height="20" as="geometry" />
        </mxCell>
        <mxCell id="vURlozzTER0y_umTKzR2-38" value="4" style="text;html=1;align=center;verticalAlign=middle;resizable=0;points=[];autosize=1;strokeColor=none;fillColor=none;fontColor=#FEFAE0;" vertex="1" parent="1">
          <mxGeometry x="550" y="260" width="20" height="20" as="geometry" />
        </mxCell>
        <mxCell id="vURlozzTER0y_umTKzR2-39" value="5" style="text;html=1;align=center;verticalAlign=middle;resizable=0;points=[];autosize=1;strokeColor=none;fillColor=none;fontColor=#FEFAE0;" vertex="1" parent="1">
          <mxGeometry x="590" y="260" width="20" height="20" as="geometry" />
        </mxCell>
        <mxCell id="vURlozzTER0y_umTKzR2-40" value="2" style="text;html=1;align=center;verticalAlign=middle;resizable=0;points=[];autosize=1;strokeColor=none;fillColor=none;fontColor=#FEFAE0;" vertex="1" parent="1">
          <mxGeometry x="440" y="120" width="20" height="20" as="geometry" />
        </mxCell>
        <mxCell id="vURlozzTER0y_umTKzR2-41" value="2" style="text;html=1;align=center;verticalAlign=middle;resizable=0;points=[];autosize=1;strokeColor=none;fillColor=none;fontColor=#FEFAE0;" vertex="1" parent="1">
          <mxGeometry x="400" y="120" width="20" height="20" as="geometry" />
        </mxCell>
        <mxCell id="vURlozzTER0y_umTKzR2-42" value="4" style="text;html=1;align=center;verticalAlign=middle;resizable=0;points=[];autosize=1;strokeColor=none;fillColor=none;fontColor=#FEFAE0;" vertex="1" parent="1">
          <mxGeometry x="420" y="120" width="20" height="20" as="geometry" />
        </mxCell>
      </root>
    </mxGraphModel>
  </diagram>
  <diagram id="IL1eY9gRudX_E6o-QRWh" name="Page-5">
    <mxGraphModel dx="832" dy="452" grid="1" gridSize="10" guides="1" tooltips="1" connect="1" arrows="1" fold="1" page="1" pageScale="1" pageWidth="650" pageHeight="400" background="#283618" math="1" shadow="0">
      <root>
        <mxCell id="0" />
        <mxCell id="1" parent="0" />
        <mxCell id="R7MFAbYlMsumd93K64Ff-1" style="rounded=0;orthogonalLoop=1;jettySize=auto;html=1;exitX=0.5;exitY=1;exitDx=0;exitDy=0;entryX=0.5;entryY=0;entryDx=0;entryDy=0;labelBackgroundColor=#283618;strokeColor=#DDA15E;fontColor=#FEFAE0;" edge="1" parent="1" source="R7MFAbYlMsumd93K64Ff-4" target="R7MFAbYlMsumd93K64Ff-12">
          <mxGeometry relative="1" as="geometry" />
        </mxCell>
        <mxCell id="R7MFAbYlMsumd93K64Ff-2" style="edgeStyle=none;rounded=0;orthogonalLoop=1;jettySize=auto;html=1;exitX=1;exitY=0.5;exitDx=0;exitDy=0;entryX=0;entryY=0.5;entryDx=0;entryDy=0;labelBackgroundColor=#283618;strokeColor=#DDA15E;fontColor=#FEFAE0;" edge="1" parent="1" source="R7MFAbYlMsumd93K64Ff-4" target="R7MFAbYlMsumd93K64Ff-6">
          <mxGeometry relative="1" as="geometry" />
        </mxCell>
        <mxCell id="R7MFAbYlMsumd93K64Ff-3" style="rounded=1;sketch=0;orthogonalLoop=1;jettySize=auto;html=1;exitX=1.075;exitY=0.675;exitDx=0;exitDy=0;entryX=0.075;entryY=0.325;entryDx=0;entryDy=0;fontColor=#FEFAE0;strokeColor=#DDA15E;fillColor=#BC6C25;entryPerimeter=0;exitPerimeter=0;labelBackgroundColor=#283618;" edge="1" parent="1" source="R7MFAbYlMsumd93K64Ff-4" target="R7MFAbYlMsumd93K64Ff-9">
          <mxGeometry relative="1" as="geometry" />
        </mxCell>
        <mxCell id="R7MFAbYlMsumd93K64Ff-4" value="0" style="ellipse;whiteSpace=wrap;html=1;aspect=fixed;fillColor=#BC6C25;strokeColor=#DDA15E;fontColor=#FEFAE0;" vertex="1" parent="1">
          <mxGeometry x="10" y="90" width="40" height="40" as="geometry" />
        </mxCell>
        <mxCell id="R7MFAbYlMsumd93K64Ff-5" style="edgeStyle=none;rounded=0;orthogonalLoop=1;jettySize=auto;html=1;exitX=1;exitY=0.5;exitDx=0;exitDy=0;entryX=0;entryY=0;entryDx=0;entryDy=0;labelBackgroundColor=#283618;strokeColor=#DDA15E;fontColor=#FEFAE0;" edge="1" parent="1" source="R7MFAbYlMsumd93K64Ff-6" target="R7MFAbYlMsumd93K64Ff-9">
          <mxGeometry relative="1" as="geometry" />
        </mxCell>
        <mxCell id="R7MFAbYlMsumd93K64Ff-6" value="1" style="ellipse;whiteSpace=wrap;html=1;aspect=fixed;fillColor=#BC6C25;strokeColor=#DDA15E;fontColor=#FEFAE0;" vertex="1" parent="1">
          <mxGeometry x="170" y="90" width="40" height="40" as="geometry" />
        </mxCell>
        <mxCell id="R7MFAbYlMsumd93K64Ff-7" style="edgeStyle=none;rounded=0;orthogonalLoop=1;jettySize=auto;html=1;exitX=0.5;exitY=1;exitDx=0;exitDy=0;entryX=0.5;entryY=0;entryDx=0;entryDy=0;labelBackgroundColor=#283618;strokeColor=#DDA15E;fontColor=#FEFAE0;" edge="1" parent="1" source="R7MFAbYlMsumd93K64Ff-9" target="R7MFAbYlMsumd93K64Ff-10">
          <mxGeometry relative="1" as="geometry" />
        </mxCell>
        <mxCell id="R7MFAbYlMsumd93K64Ff-8" style="edgeStyle=none;rounded=0;orthogonalLoop=1;jettySize=auto;html=1;exitX=0;exitY=0.5;exitDx=0;exitDy=0;entryX=1;entryY=0.5;entryDx=0;entryDy=0;labelBackgroundColor=#283618;strokeColor=#DDA15E;fontColor=#FEFAE0;" edge="1" parent="1" source="R7MFAbYlMsumd93K64Ff-9" target="R7MFAbYlMsumd93K64Ff-14">
          <mxGeometry relative="1" as="geometry" />
        </mxCell>
        <mxCell id="R7MFAbYlMsumd93K64Ff-9" value="2" style="ellipse;whiteSpace=wrap;html=1;aspect=fixed;fillColor=#BC6C25;strokeColor=#DDA15E;fontColor=#FEFAE0;" vertex="1" parent="1">
          <mxGeometry x="290" y="170" width="40" height="40" as="geometry" />
        </mxCell>
        <mxCell id="R7MFAbYlMsumd93K64Ff-10" value="3" style="ellipse;whiteSpace=wrap;html=1;aspect=fixed;fillColor=#BC6C25;strokeColor=#DDA15E;fontColor=#FEFAE0;" vertex="1" parent="1">
          <mxGeometry x="290" y="250" width="40" height="40" as="geometry" />
        </mxCell>
        <mxCell id="R7MFAbYlMsumd93K64Ff-11" style="edgeStyle=none;rounded=0;orthogonalLoop=1;jettySize=auto;html=1;exitX=1;exitY=0.5;exitDx=0;exitDy=0;entryX=0;entryY=0.5;entryDx=0;entryDy=0;labelBackgroundColor=#283618;strokeColor=#DDA15E;fontColor=#FEFAE0;" edge="1" parent="1" source="R7MFAbYlMsumd93K64Ff-12" target="R7MFAbYlMsumd93K64Ff-10">
          <mxGeometry relative="1" as="geometry" />
        </mxCell>
        <mxCell id="R7MFAbYlMsumd93K64Ff-12" value="4" style="ellipse;whiteSpace=wrap;html=1;aspect=fixed;fillColor=#BC6C25;strokeColor=#DDA15E;fontColor=#FEFAE0;" vertex="1" parent="1">
          <mxGeometry x="10" y="250" width="40" height="40" as="geometry" />
        </mxCell>
        <mxCell id="R7MFAbYlMsumd93K64Ff-13" style="edgeStyle=none;rounded=0;orthogonalLoop=1;jettySize=auto;html=1;exitX=0;exitY=0.5;exitDx=0;exitDy=0;entryX=1;entryY=1;entryDx=0;entryDy=0;labelBackgroundColor=#283618;strokeColor=#DDA15E;fontColor=#FEFAE0;" edge="1" parent="1" source="R7MFAbYlMsumd93K64Ff-14" target="R7MFAbYlMsumd93K64Ff-4">
          <mxGeometry relative="1" as="geometry" />
        </mxCell>
        <mxCell id="R7MFAbYlMsumd93K64Ff-14" value="5" style="ellipse;whiteSpace=wrap;html=1;aspect=fixed;fillColor=#BC6C25;strokeColor=#DDA15E;fontColor=#FEFAE0;" vertex="1" parent="1">
          <mxGeometry x="120" y="170" width="40" height="40" as="geometry" />
        </mxCell>
        <mxCell id="R7MFAbYlMsumd93K64Ff-15" value="4" style="text;html=1;align=center;verticalAlign=middle;resizable=0;points=[];autosize=1;strokeColor=none;fillColor=none;fontColor=#FEFAE0;" vertex="1" parent="1">
          <mxGeometry x="100" y="110" width="20" height="20" as="geometry" />
        </mxCell>
        <mxCell id="R7MFAbYlMsumd93K64Ff-16" value="3" style="text;html=1;align=center;verticalAlign=middle;resizable=0;points=[];autosize=1;strokeColor=none;fillColor=none;fontColor=#FEFAE0;rotation=15;" vertex="1" parent="1">
          <mxGeometry x="240" y="140" width="20" height="20" as="geometry" />
        </mxCell>
        <mxCell id="R7MFAbYlMsumd93K64Ff-17" value="1" style="text;html=1;align=center;verticalAlign=middle;resizable=0;points=[];autosize=1;strokeColor=none;fillColor=none;fontColor=#FEFAE0;rotation=90;" vertex="1" parent="1">
          <mxGeometry x="310" y="220" width="20" height="20" as="geometry" />
        </mxCell>
        <mxCell id="R7MFAbYlMsumd93K64Ff-18" value="9" style="text;html=1;align=center;verticalAlign=middle;resizable=0;points=[];autosize=1;strokeColor=none;fillColor=none;fontColor=#FEFAE0;" vertex="1" parent="1">
          <mxGeometry x="10" y="200" width="20" height="20" as="geometry" />
        </mxCell>
        <mxCell id="R7MFAbYlMsumd93K64Ff-19" value="3" style="text;html=1;align=center;verticalAlign=middle;resizable=0;points=[];autosize=1;strokeColor=none;fillColor=none;fontColor=#FEFAE0;" vertex="1" parent="1">
          <mxGeometry x="140" y="270" width="20" height="20" as="geometry" />
        </mxCell>
        <mxCell id="R7MFAbYlMsumd93K64Ff-20" value="2" style="text;html=1;align=center;verticalAlign=middle;resizable=0;points=[];autosize=1;strokeColor=none;fillColor=none;fontColor=#FEFAE0;rotation=0;" vertex="1" parent="1">
          <mxGeometry x="230" y="190" width="20" height="20" as="geometry" />
        </mxCell>
        <mxCell id="R7MFAbYlMsumd93K64Ff-21" value="4" style="text;html=1;align=center;verticalAlign=middle;resizable=0;points=[];autosize=1;strokeColor=none;fillColor=none;fontColor=#FEFAE0;rotation=45;" vertex="1" parent="1">
          <mxGeometry x="70" y="160" width="20" height="20" as="geometry" />
        </mxCell>
        <mxCell id="R7MFAbYlMsumd93K64Ff-22" value="cstutorial.org" style="text;html=1;align=center;verticalAlign=middle;resizable=0;points=[];autosize=1;strokeColor=none;fillColor=none;fontColor=#FEFAE0;" vertex="1" parent="1">
          <mxGeometry x="425" y="290" width="100" height="20" as="geometry" />
        </mxCell>
        <mxCell id="R7MFAbYlMsumd93K64Ff-23" value="10" style="text;html=1;align=center;verticalAlign=middle;resizable=0;points=[];autosize=1;strokeColor=none;fillColor=none;fontColor=#FEFAE0;rotation=15;" vertex="1" parent="1">
          <mxGeometry x="155" y="150" width="30" height="20" as="geometry" />
        </mxCell>
        <mxCell id="R7MFAbYlMsumd93K64Ff-24" value="" style="endArrow=classic;html=1;rounded=1;sketch=0;fontColor=#FEFAE0;strokeColor=#DDA15E;fillColor=#BC6C25;curved=0;strokeWidth=2;labelBackgroundColor=#283618;" edge="1" parent="1">
          <mxGeometry width="50" height="50" relative="1" as="geometry">
            <mxPoint x="600" y="110" as="sourcePoint" />
            <mxPoint x="380" y="110" as="targetPoint" />
          </mxGeometry>
        </mxCell>
        <mxCell id="R7MFAbYlMsumd93K64Ff-25" value="" style="endArrow=classic;html=1;rounded=1;sketch=0;fontColor=#FEFAE0;strokeColor=#DDA15E;fillColor=#BC6C25;curved=0;strokeWidth=2;labelBackgroundColor=#283618;" edge="1" parent="1">
          <mxGeometry width="50" height="50" relative="1" as="geometry">
            <mxPoint x="600" y="150" as="sourcePoint" />
            <mxPoint x="380" y="150" as="targetPoint" />
          </mxGeometry>
        </mxCell>
        <mxCell id="R7MFAbYlMsumd93K64Ff-26" value="Queue q" style="text;html=1;align=center;verticalAlign=middle;resizable=0;points=[];autosize=1;strokeColor=none;fillColor=none;fontColor=#FEFAE0;" vertex="1" parent="1">
          <mxGeometry x="455" y="90" width="70" height="20" as="geometry" />
        </mxCell>
        <mxCell id="R7MFAbYlMsumd93K64Ff-27" value="0" style="rounded=0;whiteSpace=wrap;html=1;sketch=0;fontColor=#FEFAE0;strokeColor=#DDA15E;fillColor=#BC6C25;" vertex="1" parent="1">
          <mxGeometry x="380" y="220" width="40" height="40" as="geometry" />
        </mxCell>
        <mxCell id="R7MFAbYlMsumd93K64Ff-28" value="4" style="rounded=0;whiteSpace=wrap;html=1;sketch=0;fontColor=#FEFAE0;strokeColor=#DDA15E;fillColor=#BC6C25;" vertex="1" parent="1">
          <mxGeometry x="420" y="220" width="40" height="40" as="geometry" />
        </mxCell>
        <mxCell id="R7MFAbYlMsumd93K64Ff-29" value="7" style="rounded=0;whiteSpace=wrap;html=1;sketch=0;fontColor=#FEFAE0;strokeColor=#DDA15E;fillColor=#BC6C25;" vertex="1" parent="1">
          <mxGeometry x="460" y="220" width="40" height="40" as="geometry" />
        </mxCell>
        <mxCell id="R7MFAbYlMsumd93K64Ff-30" value="8" style="rounded=0;whiteSpace=wrap;html=1;sketch=0;fontColor=#FEFAE0;strokeColor=#DDA15E;fillColor=#BC6C25;" vertex="1" parent="1">
          <mxGeometry x="500" y="220" width="40" height="40" as="geometry" />
        </mxCell>
        <mxCell id="R7MFAbYlMsumd93K64Ff-31" value="9" style="rounded=0;whiteSpace=wrap;html=1;sketch=0;fontColor=#FEFAE0;strokeColor=#DDA15E;fillColor=#BC6C25;" vertex="1" parent="1">
          <mxGeometry x="540" y="220" width="40" height="40" as="geometry" />
        </mxCell>
        <mxCell id="R7MFAbYlMsumd93K64Ff-32" value="9" style="rounded=0;whiteSpace=wrap;html=1;sketch=0;fontColor=#FEFAE0;strokeColor=#DDA15E;fillColor=#BC6C25;" vertex="1" parent="1">
          <mxGeometry x="580" y="220" width="40" height="40" as="geometry" />
        </mxCell>
        <mxCell id="R7MFAbYlMsumd93K64Ff-33" value="Distance from source 0" style="text;html=1;align=center;verticalAlign=middle;resizable=0;points=[];autosize=1;strokeColor=none;fillColor=none;fontColor=#FEFAE0;" vertex="1" parent="1">
          <mxGeometry x="425" y="200" width="160" height="20" as="geometry" />
        </mxCell>
        <mxCell id="R7MFAbYlMsumd93K64Ff-34" value="0" style="text;html=1;align=center;verticalAlign=middle;resizable=0;points=[];autosize=1;strokeColor=none;fillColor=none;fontColor=#FEFAE0;" vertex="1" parent="1">
          <mxGeometry x="390" y="260" width="20" height="20" as="geometry" />
        </mxCell>
        <mxCell id="R7MFAbYlMsumd93K64Ff-35" value="1" style="text;html=1;align=center;verticalAlign=middle;resizable=0;points=[];autosize=1;strokeColor=none;fillColor=none;fontColor=#FEFAE0;" vertex="1" parent="1">
          <mxGeometry x="430" y="260" width="20" height="20" as="geometry" />
        </mxCell>
        <mxCell id="R7MFAbYlMsumd93K64Ff-36" value="2" style="text;html=1;align=center;verticalAlign=middle;resizable=0;points=[];autosize=1;strokeColor=none;fillColor=none;fontColor=#FEFAE0;" vertex="1" parent="1">
          <mxGeometry x="470" y="260" width="20" height="20" as="geometry" />
        </mxCell>
        <mxCell id="R7MFAbYlMsumd93K64Ff-37" value="3" style="text;html=1;align=center;verticalAlign=middle;resizable=0;points=[];autosize=1;strokeColor=none;fillColor=none;fontColor=#FEFAE0;" vertex="1" parent="1">
          <mxGeometry x="510" y="260" width="20" height="20" as="geometry" />
        </mxCell>
        <mxCell id="R7MFAbYlMsumd93K64Ff-38" value="4" style="text;html=1;align=center;verticalAlign=middle;resizable=0;points=[];autosize=1;strokeColor=none;fillColor=none;fontColor=#FEFAE0;" vertex="1" parent="1">
          <mxGeometry x="550" y="260" width="20" height="20" as="geometry" />
        </mxCell>
        <mxCell id="R7MFAbYlMsumd93K64Ff-39" value="5" style="text;html=1;align=center;verticalAlign=middle;resizable=0;points=[];autosize=1;strokeColor=none;fillColor=none;fontColor=#FEFAE0;" vertex="1" parent="1">
          <mxGeometry x="590" y="260" width="20" height="20" as="geometry" />
        </mxCell>
        <mxCell id="R7MFAbYlMsumd93K64Ff-40" value="3" style="text;html=1;align=center;verticalAlign=middle;resizable=0;points=[];autosize=1;strokeColor=none;fillColor=none;fontColor=#FEFAE0;" vertex="1" parent="1">
          <mxGeometry x="440" y="120" width="20" height="20" as="geometry" />
        </mxCell>
        <mxCell id="R7MFAbYlMsumd93K64Ff-41" value="4" style="text;html=1;align=center;verticalAlign=middle;resizable=0;points=[];autosize=1;strokeColor=none;fillColor=none;fontColor=#FEFAE0;" vertex="1" parent="1">
          <mxGeometry x="400" y="120" width="20" height="20" as="geometry" />
        </mxCell>
        <mxCell id="R7MFAbYlMsumd93K64Ff-42" value="2" style="text;html=1;align=center;verticalAlign=middle;resizable=0;points=[];autosize=1;strokeColor=none;fillColor=none;fontColor=#FEFAE0;" vertex="1" parent="1">
          <mxGeometry x="420" y="120" width="20" height="20" as="geometry" />
        </mxCell>
        <mxCell id="yM6K26vC3CMZk49T5iJT-1" value="5" style="text;html=1;align=center;verticalAlign=middle;resizable=0;points=[];autosize=1;strokeColor=none;fillColor=none;fontColor=#FEFAE0;" vertex="1" parent="1">
          <mxGeometry x="460" y="120" width="20" height="20" as="geometry" />
        </mxCell>
      </root>
    </mxGraphModel>
  </diagram>
  <diagram id="XgcaGJkDqIYZfKjgMJSf" name="Page-6">
    <mxGraphModel dx="832" dy="452" grid="1" gridSize="10" guides="1" tooltips="1" connect="1" arrows="1" fold="1" page="1" pageScale="1" pageWidth="650" pageHeight="400" background="#283618" math="1" shadow="0">
      <root>
        <mxCell id="0" />
        <mxCell id="1" parent="0" />
        <mxCell id="9R9pEt_GSYs0u_DNEScW-1" style="rounded=0;orthogonalLoop=1;jettySize=auto;html=1;exitX=0.5;exitY=1;exitDx=0;exitDy=0;entryX=0.5;entryY=0;entryDx=0;entryDy=0;labelBackgroundColor=#283618;strokeColor=#DDA15E;fontColor=#FEFAE0;" edge="1" parent="1" source="9R9pEt_GSYs0u_DNEScW-4" target="9R9pEt_GSYs0u_DNEScW-12">
          <mxGeometry relative="1" as="geometry" />
        </mxCell>
        <mxCell id="9R9pEt_GSYs0u_DNEScW-2" style="edgeStyle=none;rounded=0;orthogonalLoop=1;jettySize=auto;html=1;exitX=1;exitY=0.5;exitDx=0;exitDy=0;entryX=0;entryY=0.5;entryDx=0;entryDy=0;labelBackgroundColor=#283618;strokeColor=#DDA15E;fontColor=#FEFAE0;" edge="1" parent="1" source="9R9pEt_GSYs0u_DNEScW-4" target="9R9pEt_GSYs0u_DNEScW-6">
          <mxGeometry relative="1" as="geometry" />
        </mxCell>
        <mxCell id="9R9pEt_GSYs0u_DNEScW-3" style="rounded=1;sketch=0;orthogonalLoop=1;jettySize=auto;html=1;exitX=1.075;exitY=0.675;exitDx=0;exitDy=0;entryX=0.075;entryY=0.325;entryDx=0;entryDy=0;fontColor=#FEFAE0;strokeColor=#DDA15E;fillColor=#BC6C25;entryPerimeter=0;exitPerimeter=0;labelBackgroundColor=#283618;" edge="1" parent="1" source="9R9pEt_GSYs0u_DNEScW-4" target="9R9pEt_GSYs0u_DNEScW-9">
          <mxGeometry relative="1" as="geometry" />
        </mxCell>
        <mxCell id="9R9pEt_GSYs0u_DNEScW-4" value="0" style="ellipse;whiteSpace=wrap;html=1;aspect=fixed;fillColor=#BC6C25;strokeColor=#DDA15E;fontColor=#FEFAE0;" vertex="1" parent="1">
          <mxGeometry x="10" y="90" width="40" height="40" as="geometry" />
        </mxCell>
        <mxCell id="9R9pEt_GSYs0u_DNEScW-5" style="edgeStyle=none;rounded=0;orthogonalLoop=1;jettySize=auto;html=1;exitX=1;exitY=0.5;exitDx=0;exitDy=0;entryX=0;entryY=0;entryDx=0;entryDy=0;labelBackgroundColor=#283618;strokeColor=#DDA15E;fontColor=#FEFAE0;" edge="1" parent="1" source="9R9pEt_GSYs0u_DNEScW-6" target="9R9pEt_GSYs0u_DNEScW-9">
          <mxGeometry relative="1" as="geometry" />
        </mxCell>
        <mxCell id="9R9pEt_GSYs0u_DNEScW-6" value="1" style="ellipse;whiteSpace=wrap;html=1;aspect=fixed;fillColor=#BC6C25;strokeColor=#DDA15E;fontColor=#FEFAE0;" vertex="1" parent="1">
          <mxGeometry x="170" y="90" width="40" height="40" as="geometry" />
        </mxCell>
        <mxCell id="9R9pEt_GSYs0u_DNEScW-7" style="edgeStyle=none;rounded=0;orthogonalLoop=1;jettySize=auto;html=1;exitX=0.5;exitY=1;exitDx=0;exitDy=0;entryX=0.5;entryY=0;entryDx=0;entryDy=0;labelBackgroundColor=#283618;strokeColor=#DDA15E;fontColor=#FEFAE0;" edge="1" parent="1" source="9R9pEt_GSYs0u_DNEScW-9" target="9R9pEt_GSYs0u_DNEScW-10">
          <mxGeometry relative="1" as="geometry" />
        </mxCell>
        <mxCell id="9R9pEt_GSYs0u_DNEScW-8" style="edgeStyle=none;rounded=0;orthogonalLoop=1;jettySize=auto;html=1;exitX=0;exitY=0.5;exitDx=0;exitDy=0;entryX=1;entryY=0.5;entryDx=0;entryDy=0;labelBackgroundColor=#283618;strokeColor=#DDA15E;fontColor=#FEFAE0;" edge="1" parent="1" source="9R9pEt_GSYs0u_DNEScW-9" target="9R9pEt_GSYs0u_DNEScW-14">
          <mxGeometry relative="1" as="geometry" />
        </mxCell>
        <mxCell id="9R9pEt_GSYs0u_DNEScW-9" value="2" style="ellipse;whiteSpace=wrap;html=1;aspect=fixed;fillColor=#BC6C25;strokeColor=#DDA15E;fontColor=#FEFAE0;" vertex="1" parent="1">
          <mxGeometry x="290" y="170" width="40" height="40" as="geometry" />
        </mxCell>
        <mxCell id="9R9pEt_GSYs0u_DNEScW-10" value="3" style="ellipse;whiteSpace=wrap;html=1;aspect=fixed;fillColor=#BC6C25;strokeColor=#DDA15E;fontColor=#FEFAE0;" vertex="1" parent="1">
          <mxGeometry x="290" y="250" width="40" height="40" as="geometry" />
        </mxCell>
        <mxCell id="9R9pEt_GSYs0u_DNEScW-11" style="edgeStyle=none;rounded=0;orthogonalLoop=1;jettySize=auto;html=1;exitX=1;exitY=0.5;exitDx=0;exitDy=0;entryX=0;entryY=0.5;entryDx=0;entryDy=0;labelBackgroundColor=#283618;strokeColor=#DDA15E;fontColor=#FEFAE0;" edge="1" parent="1" source="9R9pEt_GSYs0u_DNEScW-12" target="9R9pEt_GSYs0u_DNEScW-10">
          <mxGeometry relative="1" as="geometry" />
        </mxCell>
        <mxCell id="9R9pEt_GSYs0u_DNEScW-12" value="4" style="ellipse;whiteSpace=wrap;html=1;aspect=fixed;fillColor=#BC6C25;strokeColor=#DDA15E;fontColor=#FEFAE0;" vertex="1" parent="1">
          <mxGeometry x="10" y="250" width="40" height="40" as="geometry" />
        </mxCell>
        <mxCell id="9R9pEt_GSYs0u_DNEScW-13" style="edgeStyle=none;rounded=0;orthogonalLoop=1;jettySize=auto;html=1;exitX=0;exitY=0.5;exitDx=0;exitDy=0;entryX=1;entryY=1;entryDx=0;entryDy=0;labelBackgroundColor=#283618;strokeColor=#DDA15E;fontColor=#FEFAE0;" edge="1" parent="1" source="9R9pEt_GSYs0u_DNEScW-14" target="9R9pEt_GSYs0u_DNEScW-4">
          <mxGeometry relative="1" as="geometry" />
        </mxCell>
        <mxCell id="9R9pEt_GSYs0u_DNEScW-14" value="5" style="ellipse;whiteSpace=wrap;html=1;aspect=fixed;fillColor=#BC6C25;strokeColor=#DDA15E;fontColor=#FEFAE0;" vertex="1" parent="1">
          <mxGeometry x="120" y="170" width="40" height="40" as="geometry" />
        </mxCell>
        <mxCell id="9R9pEt_GSYs0u_DNEScW-15" value="4" style="text;html=1;align=center;verticalAlign=middle;resizable=0;points=[];autosize=1;strokeColor=none;fillColor=none;fontColor=#FEFAE0;" vertex="1" parent="1">
          <mxGeometry x="100" y="110" width="20" height="20" as="geometry" />
        </mxCell>
        <mxCell id="9R9pEt_GSYs0u_DNEScW-16" value="3" style="text;html=1;align=center;verticalAlign=middle;resizable=0;points=[];autosize=1;strokeColor=none;fillColor=none;fontColor=#FEFAE0;rotation=15;" vertex="1" parent="1">
          <mxGeometry x="240" y="140" width="20" height="20" as="geometry" />
        </mxCell>
        <mxCell id="9R9pEt_GSYs0u_DNEScW-17" value="1" style="text;html=1;align=center;verticalAlign=middle;resizable=0;points=[];autosize=1;strokeColor=none;fillColor=none;fontColor=#FEFAE0;rotation=90;" vertex="1" parent="1">
          <mxGeometry x="310" y="220" width="20" height="20" as="geometry" />
        </mxCell>
        <mxCell id="9R9pEt_GSYs0u_DNEScW-18" value="9" style="text;html=1;align=center;verticalAlign=middle;resizable=0;points=[];autosize=1;strokeColor=none;fillColor=none;fontColor=#FEFAE0;" vertex="1" parent="1">
          <mxGeometry x="10" y="200" width="20" height="20" as="geometry" />
        </mxCell>
        <mxCell id="9R9pEt_GSYs0u_DNEScW-19" value="3" style="text;html=1;align=center;verticalAlign=middle;resizable=0;points=[];autosize=1;strokeColor=none;fillColor=none;fontColor=#FEFAE0;" vertex="1" parent="1">
          <mxGeometry x="140" y="270" width="20" height="20" as="geometry" />
        </mxCell>
        <mxCell id="9R9pEt_GSYs0u_DNEScW-20" value="2" style="text;html=1;align=center;verticalAlign=middle;resizable=0;points=[];autosize=1;strokeColor=none;fillColor=none;fontColor=#FEFAE0;rotation=0;" vertex="1" parent="1">
          <mxGeometry x="230" y="190" width="20" height="20" as="geometry" />
        </mxCell>
        <mxCell id="9R9pEt_GSYs0u_DNEScW-21" value="4" style="text;html=1;align=center;verticalAlign=middle;resizable=0;points=[];autosize=1;strokeColor=none;fillColor=none;fontColor=#FEFAE0;rotation=45;" vertex="1" parent="1">
          <mxGeometry x="70" y="160" width="20" height="20" as="geometry" />
        </mxCell>
        <mxCell id="9R9pEt_GSYs0u_DNEScW-22" value="cstutorial.org" style="text;html=1;align=center;verticalAlign=middle;resizable=0;points=[];autosize=1;strokeColor=none;fillColor=none;fontColor=#FEFAE0;" vertex="1" parent="1">
          <mxGeometry x="425" y="290" width="100" height="20" as="geometry" />
        </mxCell>
        <mxCell id="9R9pEt_GSYs0u_DNEScW-23" value="10" style="text;html=1;align=center;verticalAlign=middle;resizable=0;points=[];autosize=1;strokeColor=none;fillColor=none;fontColor=#FEFAE0;rotation=15;" vertex="1" parent="1">
          <mxGeometry x="155" y="150" width="30" height="20" as="geometry" />
        </mxCell>
        <mxCell id="9R9pEt_GSYs0u_DNEScW-24" value="" style="endArrow=classic;html=1;rounded=1;sketch=0;fontColor=#FEFAE0;strokeColor=#DDA15E;fillColor=#BC6C25;curved=0;strokeWidth=2;labelBackgroundColor=#283618;" edge="1" parent="1">
          <mxGeometry width="50" height="50" relative="1" as="geometry">
            <mxPoint x="600" y="110" as="sourcePoint" />
            <mxPoint x="380" y="110" as="targetPoint" />
          </mxGeometry>
        </mxCell>
        <mxCell id="9R9pEt_GSYs0u_DNEScW-25" value="" style="endArrow=classic;html=1;rounded=1;sketch=0;fontColor=#FEFAE0;strokeColor=#DDA15E;fillColor=#BC6C25;curved=0;strokeWidth=2;labelBackgroundColor=#283618;" edge="1" parent="1">
          <mxGeometry width="50" height="50" relative="1" as="geometry">
            <mxPoint x="600" y="150" as="sourcePoint" />
            <mxPoint x="380" y="150" as="targetPoint" />
          </mxGeometry>
        </mxCell>
        <mxCell id="9R9pEt_GSYs0u_DNEScW-26" value="Queue q" style="text;html=1;align=center;verticalAlign=middle;resizable=0;points=[];autosize=1;strokeColor=none;fillColor=none;fontColor=#FEFAE0;" vertex="1" parent="1">
          <mxGeometry x="455" y="90" width="70" height="20" as="geometry" />
        </mxCell>
        <mxCell id="9R9pEt_GSYs0u_DNEScW-27" value="0" style="rounded=0;whiteSpace=wrap;html=1;sketch=0;fontColor=#FEFAE0;strokeColor=#DDA15E;fillColor=#BC6C25;" vertex="1" parent="1">
          <mxGeometry x="380" y="220" width="40" height="40" as="geometry" />
        </mxCell>
        <mxCell id="9R9pEt_GSYs0u_DNEScW-28" value="4" style="rounded=0;whiteSpace=wrap;html=1;sketch=0;fontColor=#FEFAE0;strokeColor=#DDA15E;fillColor=#BC6C25;" vertex="1" parent="1">
          <mxGeometry x="420" y="220" width="40" height="40" as="geometry" />
        </mxCell>
        <mxCell id="9R9pEt_GSYs0u_DNEScW-29" value="7" style="rounded=0;whiteSpace=wrap;html=1;sketch=0;fontColor=#FEFAE0;strokeColor=#DDA15E;fillColor=#BC6C25;" vertex="1" parent="1">
          <mxGeometry x="460" y="220" width="40" height="40" as="geometry" />
        </mxCell>
        <mxCell id="9R9pEt_GSYs0u_DNEScW-30" value="8" style="rounded=0;whiteSpace=wrap;html=1;sketch=0;fontColor=#FEFAE0;strokeColor=#DDA15E;fillColor=#BC6C25;" vertex="1" parent="1">
          <mxGeometry x="500" y="220" width="40" height="40" as="geometry" />
        </mxCell>
        <mxCell id="9R9pEt_GSYs0u_DNEScW-31" value="9" style="rounded=0;whiteSpace=wrap;html=1;sketch=0;fontColor=#FEFAE0;strokeColor=#DDA15E;fillColor=#BC6C25;" vertex="1" parent="1">
          <mxGeometry x="540" y="220" width="40" height="40" as="geometry" />
        </mxCell>
        <mxCell id="9R9pEt_GSYs0u_DNEScW-32" value="9" style="rounded=0;whiteSpace=wrap;html=1;sketch=0;fontColor=#FEFAE0;strokeColor=#DDA15E;fillColor=#BC6C25;" vertex="1" parent="1">
          <mxGeometry x="580" y="220" width="40" height="40" as="geometry" />
        </mxCell>
        <mxCell id="9R9pEt_GSYs0u_DNEScW-33" value="Distance from source 0" style="text;html=1;align=center;verticalAlign=middle;resizable=0;points=[];autosize=1;strokeColor=none;fillColor=none;fontColor=#FEFAE0;" vertex="1" parent="1">
          <mxGeometry x="425" y="200" width="160" height="20" as="geometry" />
        </mxCell>
        <mxCell id="9R9pEt_GSYs0u_DNEScW-34" value="0" style="text;html=1;align=center;verticalAlign=middle;resizable=0;points=[];autosize=1;strokeColor=none;fillColor=none;fontColor=#FEFAE0;" vertex="1" parent="1">
          <mxGeometry x="390" y="260" width="20" height="20" as="geometry" />
        </mxCell>
        <mxCell id="9R9pEt_GSYs0u_DNEScW-35" value="1" style="text;html=1;align=center;verticalAlign=middle;resizable=0;points=[];autosize=1;strokeColor=none;fillColor=none;fontColor=#FEFAE0;" vertex="1" parent="1">
          <mxGeometry x="430" y="260" width="20" height="20" as="geometry" />
        </mxCell>
        <mxCell id="9R9pEt_GSYs0u_DNEScW-36" value="2" style="text;html=1;align=center;verticalAlign=middle;resizable=0;points=[];autosize=1;strokeColor=none;fillColor=none;fontColor=#FEFAE0;" vertex="1" parent="1">
          <mxGeometry x="470" y="260" width="20" height="20" as="geometry" />
        </mxCell>
        <mxCell id="9R9pEt_GSYs0u_DNEScW-37" value="3" style="text;html=1;align=center;verticalAlign=middle;resizable=0;points=[];autosize=1;strokeColor=none;fillColor=none;fontColor=#FEFAE0;" vertex="1" parent="1">
          <mxGeometry x="510" y="260" width="20" height="20" as="geometry" />
        </mxCell>
        <mxCell id="9R9pEt_GSYs0u_DNEScW-38" value="4" style="text;html=1;align=center;verticalAlign=middle;resizable=0;points=[];autosize=1;strokeColor=none;fillColor=none;fontColor=#FEFAE0;" vertex="1" parent="1">
          <mxGeometry x="550" y="260" width="20" height="20" as="geometry" />
        </mxCell>
        <mxCell id="9R9pEt_GSYs0u_DNEScW-39" value="5" style="text;html=1;align=center;verticalAlign=middle;resizable=0;points=[];autosize=1;strokeColor=none;fillColor=none;fontColor=#FEFAE0;" vertex="1" parent="1">
          <mxGeometry x="590" y="260" width="20" height="20" as="geometry" />
        </mxCell>
        <mxCell id="9R9pEt_GSYs0u_DNEScW-40" value="3" style="text;html=1;align=center;verticalAlign=middle;resizable=0;points=[];autosize=1;strokeColor=none;fillColor=none;fontColor=#FEFAE0;" vertex="1" parent="1">
          <mxGeometry x="420" y="120" width="20" height="20" as="geometry" />
        </mxCell>
        <mxCell id="9R9pEt_GSYs0u_DNEScW-42" value="2" style="text;html=1;align=center;verticalAlign=middle;resizable=0;points=[];autosize=1;strokeColor=none;fillColor=none;fontColor=#FEFAE0;" vertex="1" parent="1">
          <mxGeometry x="400" y="120" width="20" height="20" as="geometry" />
        </mxCell>
        <mxCell id="9R9pEt_GSYs0u_DNEScW-43" value="5" style="text;html=1;align=center;verticalAlign=middle;resizable=0;points=[];autosize=1;strokeColor=none;fillColor=none;fontColor=#FEFAE0;" vertex="1" parent="1">
          <mxGeometry x="440" y="120" width="20" height="20" as="geometry" />
        </mxCell>
      </root>
    </mxGraphModel>
  </diagram>
  <diagram id="Z2Pc80lS1Vnao9MDudYF" name="Page-7">
    <mxGraphModel dx="832" dy="452" grid="1" gridSize="10" guides="1" tooltips="1" connect="1" arrows="1" fold="1" page="1" pageScale="1" pageWidth="650" pageHeight="400" background="#283618" math="1" shadow="0">
      <root>
        <mxCell id="0" />
        <mxCell id="1" parent="0" />
        <mxCell id="lt1abceUOkMedNUvCOXY-1" style="rounded=0;orthogonalLoop=1;jettySize=auto;html=1;exitX=0.5;exitY=1;exitDx=0;exitDy=0;entryX=0.5;entryY=0;entryDx=0;entryDy=0;labelBackgroundColor=#283618;strokeColor=#DDA15E;fontColor=#FEFAE0;" edge="1" parent="1" source="lt1abceUOkMedNUvCOXY-4" target="lt1abceUOkMedNUvCOXY-12">
          <mxGeometry relative="1" as="geometry" />
        </mxCell>
        <mxCell id="lt1abceUOkMedNUvCOXY-2" style="edgeStyle=none;rounded=0;orthogonalLoop=1;jettySize=auto;html=1;exitX=1;exitY=0.5;exitDx=0;exitDy=0;entryX=0;entryY=0.5;entryDx=0;entryDy=0;labelBackgroundColor=#283618;strokeColor=#DDA15E;fontColor=#FEFAE0;" edge="1" parent="1" source="lt1abceUOkMedNUvCOXY-4" target="lt1abceUOkMedNUvCOXY-6">
          <mxGeometry relative="1" as="geometry" />
        </mxCell>
        <mxCell id="lt1abceUOkMedNUvCOXY-3" style="rounded=1;sketch=0;orthogonalLoop=1;jettySize=auto;html=1;exitX=1.075;exitY=0.675;exitDx=0;exitDy=0;entryX=0.075;entryY=0.325;entryDx=0;entryDy=0;fontColor=#FEFAE0;strokeColor=#DDA15E;fillColor=#BC6C25;entryPerimeter=0;exitPerimeter=0;labelBackgroundColor=#283618;" edge="1" parent="1" source="lt1abceUOkMedNUvCOXY-4" target="lt1abceUOkMedNUvCOXY-9">
          <mxGeometry relative="1" as="geometry" />
        </mxCell>
        <mxCell id="lt1abceUOkMedNUvCOXY-4" value="0" style="ellipse;whiteSpace=wrap;html=1;aspect=fixed;fillColor=#BC6C25;strokeColor=#DDA15E;fontColor=#FEFAE0;" vertex="1" parent="1">
          <mxGeometry x="10" y="90" width="40" height="40" as="geometry" />
        </mxCell>
        <mxCell id="lt1abceUOkMedNUvCOXY-5" style="edgeStyle=none;rounded=0;orthogonalLoop=1;jettySize=auto;html=1;exitX=1;exitY=0.5;exitDx=0;exitDy=0;entryX=0;entryY=0;entryDx=0;entryDy=0;labelBackgroundColor=#283618;strokeColor=#DDA15E;fontColor=#FEFAE0;" edge="1" parent="1" source="lt1abceUOkMedNUvCOXY-6" target="lt1abceUOkMedNUvCOXY-9">
          <mxGeometry relative="1" as="geometry" />
        </mxCell>
        <mxCell id="lt1abceUOkMedNUvCOXY-6" value="1" style="ellipse;whiteSpace=wrap;html=1;aspect=fixed;fillColor=#BC6C25;strokeColor=#DDA15E;fontColor=#FEFAE0;" vertex="1" parent="1">
          <mxGeometry x="170" y="90" width="40" height="40" as="geometry" />
        </mxCell>
        <mxCell id="lt1abceUOkMedNUvCOXY-7" style="edgeStyle=none;rounded=0;orthogonalLoop=1;jettySize=auto;html=1;exitX=0.5;exitY=1;exitDx=0;exitDy=0;entryX=0.5;entryY=0;entryDx=0;entryDy=0;labelBackgroundColor=#283618;strokeColor=#DDA15E;fontColor=#FEFAE0;" edge="1" parent="1" source="lt1abceUOkMedNUvCOXY-9" target="lt1abceUOkMedNUvCOXY-10">
          <mxGeometry relative="1" as="geometry" />
        </mxCell>
        <mxCell id="lt1abceUOkMedNUvCOXY-8" style="edgeStyle=none;rounded=0;orthogonalLoop=1;jettySize=auto;html=1;exitX=0;exitY=0.5;exitDx=0;exitDy=0;entryX=1;entryY=0.5;entryDx=0;entryDy=0;labelBackgroundColor=#283618;strokeColor=#DDA15E;fontColor=#FEFAE0;" edge="1" parent="1" source="lt1abceUOkMedNUvCOXY-9" target="lt1abceUOkMedNUvCOXY-14">
          <mxGeometry relative="1" as="geometry" />
        </mxCell>
        <mxCell id="lt1abceUOkMedNUvCOXY-9" value="2" style="ellipse;whiteSpace=wrap;html=1;aspect=fixed;fillColor=#BC6C25;strokeColor=#DDA15E;fontColor=#FEFAE0;" vertex="1" parent="1">
          <mxGeometry x="290" y="170" width="40" height="40" as="geometry" />
        </mxCell>
        <mxCell id="lt1abceUOkMedNUvCOXY-10" value="3" style="ellipse;whiteSpace=wrap;html=1;aspect=fixed;fillColor=#BC6C25;strokeColor=#DDA15E;fontColor=#FEFAE0;" vertex="1" parent="1">
          <mxGeometry x="290" y="250" width="40" height="40" as="geometry" />
        </mxCell>
        <mxCell id="lt1abceUOkMedNUvCOXY-11" style="edgeStyle=none;rounded=0;orthogonalLoop=1;jettySize=auto;html=1;exitX=1;exitY=0.5;exitDx=0;exitDy=0;entryX=0;entryY=0.5;entryDx=0;entryDy=0;labelBackgroundColor=#283618;strokeColor=#DDA15E;fontColor=#FEFAE0;" edge="1" parent="1" source="lt1abceUOkMedNUvCOXY-12" target="lt1abceUOkMedNUvCOXY-10">
          <mxGeometry relative="1" as="geometry" />
        </mxCell>
        <mxCell id="lt1abceUOkMedNUvCOXY-12" value="4" style="ellipse;whiteSpace=wrap;html=1;aspect=fixed;fillColor=#BC6C25;strokeColor=#DDA15E;fontColor=#FEFAE0;" vertex="1" parent="1">
          <mxGeometry x="10" y="250" width="40" height="40" as="geometry" />
        </mxCell>
        <mxCell id="lt1abceUOkMedNUvCOXY-13" style="edgeStyle=none;rounded=0;orthogonalLoop=1;jettySize=auto;html=1;exitX=0;exitY=0.5;exitDx=0;exitDy=0;entryX=1;entryY=1;entryDx=0;entryDy=0;labelBackgroundColor=#283618;strokeColor=#DDA15E;fontColor=#FEFAE0;" edge="1" parent="1" source="lt1abceUOkMedNUvCOXY-14" target="lt1abceUOkMedNUvCOXY-4">
          <mxGeometry relative="1" as="geometry" />
        </mxCell>
        <mxCell id="lt1abceUOkMedNUvCOXY-14" value="5" style="ellipse;whiteSpace=wrap;html=1;aspect=fixed;fillColor=#BC6C25;strokeColor=#DDA15E;fontColor=#FEFAE0;" vertex="1" parent="1">
          <mxGeometry x="120" y="170" width="40" height="40" as="geometry" />
        </mxCell>
        <mxCell id="lt1abceUOkMedNUvCOXY-15" value="4" style="text;html=1;align=center;verticalAlign=middle;resizable=0;points=[];autosize=1;strokeColor=none;fillColor=none;fontColor=#FEFAE0;" vertex="1" parent="1">
          <mxGeometry x="100" y="110" width="20" height="20" as="geometry" />
        </mxCell>
        <mxCell id="lt1abceUOkMedNUvCOXY-16" value="3" style="text;html=1;align=center;verticalAlign=middle;resizable=0;points=[];autosize=1;strokeColor=none;fillColor=none;fontColor=#FEFAE0;rotation=15;" vertex="1" parent="1">
          <mxGeometry x="240" y="140" width="20" height="20" as="geometry" />
        </mxCell>
        <mxCell id="lt1abceUOkMedNUvCOXY-17" value="1" style="text;html=1;align=center;verticalAlign=middle;resizable=0;points=[];autosize=1;strokeColor=none;fillColor=none;fontColor=#FEFAE0;rotation=90;" vertex="1" parent="1">
          <mxGeometry x="310" y="220" width="20" height="20" as="geometry" />
        </mxCell>
        <mxCell id="lt1abceUOkMedNUvCOXY-18" value="9" style="text;html=1;align=center;verticalAlign=middle;resizable=0;points=[];autosize=1;strokeColor=none;fillColor=none;fontColor=#FEFAE0;" vertex="1" parent="1">
          <mxGeometry x="10" y="200" width="20" height="20" as="geometry" />
        </mxCell>
        <mxCell id="lt1abceUOkMedNUvCOXY-19" value="3" style="text;html=1;align=center;verticalAlign=middle;resizable=0;points=[];autosize=1;strokeColor=none;fillColor=none;fontColor=#FEFAE0;" vertex="1" parent="1">
          <mxGeometry x="140" y="270" width="20" height="20" as="geometry" />
        </mxCell>
        <mxCell id="lt1abceUOkMedNUvCOXY-20" value="2" style="text;html=1;align=center;verticalAlign=middle;resizable=0;points=[];autosize=1;strokeColor=none;fillColor=none;fontColor=#FEFAE0;rotation=0;" vertex="1" parent="1">
          <mxGeometry x="230" y="190" width="20" height="20" as="geometry" />
        </mxCell>
        <mxCell id="lt1abceUOkMedNUvCOXY-21" value="4" style="text;html=1;align=center;verticalAlign=middle;resizable=0;points=[];autosize=1;strokeColor=none;fillColor=none;fontColor=#FEFAE0;rotation=45;" vertex="1" parent="1">
          <mxGeometry x="70" y="160" width="20" height="20" as="geometry" />
        </mxCell>
        <mxCell id="lt1abceUOkMedNUvCOXY-22" value="cstutorial.org" style="text;html=1;align=center;verticalAlign=middle;resizable=0;points=[];autosize=1;strokeColor=none;fillColor=none;fontColor=#FEFAE0;" vertex="1" parent="1">
          <mxGeometry x="425" y="290" width="100" height="20" as="geometry" />
        </mxCell>
        <mxCell id="lt1abceUOkMedNUvCOXY-23" value="10" style="text;html=1;align=center;verticalAlign=middle;resizable=0;points=[];autosize=1;strokeColor=none;fillColor=none;fontColor=#FEFAE0;rotation=15;" vertex="1" parent="1">
          <mxGeometry x="155" y="150" width="30" height="20" as="geometry" />
        </mxCell>
        <mxCell id="lt1abceUOkMedNUvCOXY-24" value="" style="endArrow=classic;html=1;rounded=1;sketch=0;fontColor=#FEFAE0;strokeColor=#DDA15E;fillColor=#BC6C25;curved=0;strokeWidth=2;labelBackgroundColor=#283618;" edge="1" parent="1">
          <mxGeometry width="50" height="50" relative="1" as="geometry">
            <mxPoint x="600" y="110" as="sourcePoint" />
            <mxPoint x="380" y="110" as="targetPoint" />
          </mxGeometry>
        </mxCell>
        <mxCell id="lt1abceUOkMedNUvCOXY-25" value="" style="endArrow=classic;html=1;rounded=1;sketch=0;fontColor=#FEFAE0;strokeColor=#DDA15E;fillColor=#BC6C25;curved=0;strokeWidth=2;labelBackgroundColor=#283618;" edge="1" parent="1">
          <mxGeometry width="50" height="50" relative="1" as="geometry">
            <mxPoint x="600" y="150" as="sourcePoint" />
            <mxPoint x="380" y="150" as="targetPoint" />
          </mxGeometry>
        </mxCell>
        <mxCell id="lt1abceUOkMedNUvCOXY-26" value="Queue q (Empty)" style="text;html=1;align=center;verticalAlign=middle;resizable=0;points=[];autosize=1;strokeColor=none;fillColor=none;fontColor=#FEFAE0;" vertex="1" parent="1">
          <mxGeometry x="430" y="90" width="120" height="20" as="geometry" />
        </mxCell>
        <mxCell id="lt1abceUOkMedNUvCOXY-27" value="0" style="rounded=0;whiteSpace=wrap;html=1;sketch=0;fontColor=#FEFAE0;strokeColor=#DDA15E;fillColor=#BC6C25;" vertex="1" parent="1">
          <mxGeometry x="380" y="220" width="40" height="40" as="geometry" />
        </mxCell>
        <mxCell id="lt1abceUOkMedNUvCOXY-28" value="4" style="rounded=0;whiteSpace=wrap;html=1;sketch=0;fontColor=#FEFAE0;strokeColor=#DDA15E;fillColor=#BC6C25;" vertex="1" parent="1">
          <mxGeometry x="420" y="220" width="40" height="40" as="geometry" />
        </mxCell>
        <mxCell id="lt1abceUOkMedNUvCOXY-29" value="7" style="rounded=0;whiteSpace=wrap;html=1;sketch=0;fontColor=#FEFAE0;strokeColor=#DDA15E;fillColor=#BC6C25;" vertex="1" parent="1">
          <mxGeometry x="460" y="220" width="40" height="40" as="geometry" />
        </mxCell>
        <mxCell id="lt1abceUOkMedNUvCOXY-30" value="8" style="rounded=0;whiteSpace=wrap;html=1;sketch=0;fontColor=#FEFAE0;strokeColor=#DDA15E;fillColor=#BC6C25;" vertex="1" parent="1">
          <mxGeometry x="500" y="220" width="40" height="40" as="geometry" />
        </mxCell>
        <mxCell id="lt1abceUOkMedNUvCOXY-31" value="9" style="rounded=0;whiteSpace=wrap;html=1;sketch=0;fontColor=#FEFAE0;strokeColor=#DDA15E;fillColor=#BC6C25;" vertex="1" parent="1">
          <mxGeometry x="540" y="220" width="40" height="40" as="geometry" />
        </mxCell>
        <mxCell id="lt1abceUOkMedNUvCOXY-32" value="9" style="rounded=0;whiteSpace=wrap;html=1;sketch=0;fontColor=#FEFAE0;strokeColor=#DDA15E;fillColor=#BC6C25;" vertex="1" parent="1">
          <mxGeometry x="580" y="220" width="40" height="40" as="geometry" />
        </mxCell>
        <mxCell id="lt1abceUOkMedNUvCOXY-33" value="Distance from source 0" style="text;html=1;align=center;verticalAlign=middle;resizable=0;points=[];autosize=1;strokeColor=none;fillColor=none;fontColor=#FEFAE0;" vertex="1" parent="1">
          <mxGeometry x="425" y="200" width="160" height="20" as="geometry" />
        </mxCell>
        <mxCell id="lt1abceUOkMedNUvCOXY-34" value="0" style="text;html=1;align=center;verticalAlign=middle;resizable=0;points=[];autosize=1;strokeColor=none;fillColor=none;fontColor=#FEFAE0;" vertex="1" parent="1">
          <mxGeometry x="390" y="260" width="20" height="20" as="geometry" />
        </mxCell>
        <mxCell id="lt1abceUOkMedNUvCOXY-35" value="1" style="text;html=1;align=center;verticalAlign=middle;resizable=0;points=[];autosize=1;strokeColor=none;fillColor=none;fontColor=#FEFAE0;" vertex="1" parent="1">
          <mxGeometry x="430" y="260" width="20" height="20" as="geometry" />
        </mxCell>
        <mxCell id="lt1abceUOkMedNUvCOXY-36" value="2" style="text;html=1;align=center;verticalAlign=middle;resizable=0;points=[];autosize=1;strokeColor=none;fillColor=none;fontColor=#FEFAE0;" vertex="1" parent="1">
          <mxGeometry x="470" y="260" width="20" height="20" as="geometry" />
        </mxCell>
        <mxCell id="lt1abceUOkMedNUvCOXY-37" value="3" style="text;html=1;align=center;verticalAlign=middle;resizable=0;points=[];autosize=1;strokeColor=none;fillColor=none;fontColor=#FEFAE0;" vertex="1" parent="1">
          <mxGeometry x="510" y="260" width="20" height="20" as="geometry" />
        </mxCell>
        <mxCell id="lt1abceUOkMedNUvCOXY-38" value="4" style="text;html=1;align=center;verticalAlign=middle;resizable=0;points=[];autosize=1;strokeColor=none;fillColor=none;fontColor=#FEFAE0;" vertex="1" parent="1">
          <mxGeometry x="550" y="260" width="20" height="20" as="geometry" />
        </mxCell>
        <mxCell id="lt1abceUOkMedNUvCOXY-39" value="5" style="text;html=1;align=center;verticalAlign=middle;resizable=0;points=[];autosize=1;strokeColor=none;fillColor=none;fontColor=#FEFAE0;" vertex="1" parent="1">
          <mxGeometry x="590" y="260" width="20" height="20" as="geometry" />
        </mxCell>
      </root>
    </mxGraphModel>
  </diagram>
</mxfile>
